solid Slide-Rail-Supports
facet normal 0.0 0.0 -1.0
  outer loop
    vertex 0.0 95.0 0.0
    vertex 5.5 90.0 0.0
    vertex 0.0 -10.0 0.0
  endloop
endfacet
facet normal 0.0 0.0 -1.0
  outer loop
    vertex 5.5 90.0 0.0
    vertex 0.0 95.0 0.0
    vertex 5.568148347421864 90.51763809020505 0.0
  endloop
endfacet
facet normal 0.0 0.0 -1.0
  outer loop
    vertex 5.568148347421864 90.51763809020505 0.0
    vertex 0.0 95.0 0.0
    vertex 5.767949192431122 91.0 0.0
  endloop
endfacet
facet normal 0.0 0.0 -1.0
  outer loop
    vertex 5.767949192431122 91.0 0.0
    vertex 0.0 95.0 0.0
    vertex 6.085786437626904 91.4142135623731 0.0
  endloop
endfacet
facet normal 0.0 0.0 -1.0
  outer loop
    vertex 6.085786437626904 91.4142135623731 0.0
    vertex 0.0 95.0 0.0
    vertex 6.499999999999999 91.73205080756888 0.0
  endloop
endfacet
facet normal 0.0 0.0 -1.0
  outer loop
    vertex 6.499999999999999 91.73205080756888 0.0
    vertex 0.0 95.0 0.0
    vertex 6.982361909794958 91.93185165257813 0.0
  endloop
endfacet
facet normal 0.0 0.0 -1.0
  outer loop
    vertex 6.982361909794958 91.93185165257813 0.0
    vertex 0.0 95.0 0.0
    vertex 15.0 95.0 0.0
  endloop
endfacet
facet normal 0.0 0.0 -1.0
  outer loop
    vertex 6.982361909794958 91.93185165257813 0.0
    vertex 15.0 95.0 0.0
    vertex 7.499999999999999 92.0 0.0
  endloop
endfacet
facet normal 0.0 0.0 -1.0
  outer loop
    vertex 7.499999999999999 92.0 0.0
    vertex 15.0 95.0 0.0
    vertex 8.01763809020504 91.93185165257813 0.0
  endloop
endfacet
facet normal 0.0 0.0 -1.0
  outer loop
    vertex 8.01763809020504 91.93185165257813 0.0
    vertex 15.0 95.0 0.0
    vertex 8.499999999999998 91.73205080756888 0.0
  endloop
endfacet
facet normal 0.0 0.0 -1.0
  outer loop
    vertex 8.499999999999998 91.73205080756888 0.0
    vertex 15.0 95.0 0.0
    vertex 8.914213562373094 91.4142135623731 0.0
  endloop
endfacet
facet normal 0.0 0.0 -1.0
  outer loop
    vertex 8.914213562373094 91.4142135623731 0.0
    vertex 15.0 95.0 0.0
    vertex 9.232050807568877 91.0 0.0
  endloop
endfacet
facet normal 0.0 0.0 -1.0
  outer loop
    vertex 9.232050807568877 91.0 0.0
    vertex 15.0 95.0 0.0
    vertex 9.431851652578134 90.51763809020505 0.0
  endloop
endfacet
facet normal 0.0 0.0 -1.0
  outer loop
    vertex 9.431851652578134 90.51763809020505 0.0
    vertex 15.0 95.0 0.0
    vertex 9.499999999999998 90.0 0.0
  endloop
endfacet
facet normal 0.0 0.0 -1.0
  outer loop
    vertex 9.499999999999998 90.0 0.0
    vertex 15.0 95.0 0.0
    vertex 9.5 -5.0 0.0
  endloop
endfacet
facet normal 0.0 0.0 -1.0
  outer loop
    vertex 0.0 -10.0 0.0
    vertex 6.982361909794959 -6.931851652578135 0.0
    vertex 15.0 -10.0 0.0
  endloop
endfacet
facet normal 0.0 0.0 -1.0
  outer loop
    vertex 6.982361909794959 -6.931851652578135 0.0
    vertex 0.0 -10.0 0.0
    vertex 6.500000000000001 -6.732050807568878 0.0
  endloop
endfacet
facet normal 0.0 0.0 -1.0
  outer loop
    vertex 6.500000000000001 -6.732050807568878 0.0
    vertex 0.0 -10.0 0.0
    vertex 6.085786437626906 -6.414213562373095 0.0
  endloop
endfacet
facet normal 0.0 0.0 -1.0
  outer loop
    vertex 6.085786437626906 -6.414213562373095 0.0
    vertex 0.0 -10.0 0.0
    vertex 5.767949192431124 -6.0 0.0
  endloop
endfacet
facet normal 0.0 0.0 -1.0
  outer loop
    vertex 5.767949192431124 -6.0 0.0
    vertex 0.0 -10.0 0.0
    vertex 5.5681483474218645 -5.517638090205042 0.0
  endloop
endfacet
facet normal 0.0 0.0 -1.0
  outer loop
    vertex 5.5681483474218645 -5.517638090205042 0.0
    vertex 0.0 -10.0 0.0
    vertex 5.500000000000001 -5.0 0.0
  endloop
endfacet
facet normal 0.0 0.0 -1.0
  outer loop
    vertex 5.500000000000001 -5.0 0.0
    vertex 0.0 -10.0 0.0
    vertex 5.5 90.0 0.0
  endloop
endfacet
facet normal 0.0 0.0 -1.0
  outer loop
    vertex 15.0 -10.0 0.0
    vertex 6.982361909794959 -6.931851652578135 0.0
    vertex 7.5 -6.999999999999998 0.0
  endloop
endfacet
facet normal 0.0 0.0 -1.0
  outer loop
    vertex 15.0 -10.0 0.0
    vertex 7.5 -6.999999999999998 0.0
    vertex 8.017638090205041 -6.931851652578135 0.0
  endloop
endfacet
facet normal 0.0 0.0 -1.0
  outer loop
    vertex 15.0 -10.0 0.0
    vertex 8.017638090205041 -6.931851652578135 0.0
    vertex 8.5 -6.732050807568876 0.0
  endloop
endfacet
facet normal 0.0 0.0 -1.0
  outer loop
    vertex 15.0 -10.0 0.0
    vertex 8.5 -6.732050807568876 0.0
    vertex 8.914213562373094 -6.414213562373095 0.0
  endloop
endfacet
facet normal 0.0 0.0 -1.0
  outer loop
    vertex 15.0 -10.0 0.0
    vertex 8.914213562373094 -6.414213562373095 0.0
    vertex 9.232050807568877 -6.0 0.0
  endloop
endfacet
facet normal 0.0 0.0 -1.0
  outer loop
    vertex 15.0 -10.0 0.0
    vertex 9.232050807568877 -6.0 0.0
    vertex 9.431851652578136 -5.5176380902050415 0.0
  endloop
endfacet
facet normal 0.0 0.0 -1.0
  outer loop
    vertex 15.0 -10.0 0.0
    vertex 9.431851652578136 -5.5176380902050415 0.0
    vertex 9.5 -5.0 0.0
  endloop
endfacet
facet normal 0.0 0.0 -1.0
  outer loop
    vertex 15.0 -10.0 0.0
    vertex 9.5 -5.0 0.0
    vertex 15.0 95.0 0.0
  endloop
endfacet
facet normal 0.0 0.0 -1.0
  outer loop
    vertex 5.568148347421864 89.48236190979496 0.0
    vertex 5.500000000000001 -5.0 0.0
    vertex 5.5 90.0 0.0
  endloop
endfacet
facet normal 0.0 0.0 -1.0
  outer loop
    vertex 5.500000000000001 -5.0 0.0
    vertex 5.568148347421864 89.48236190979496 0.0
    vertex 5.5681483474218645 -4.482361909794959 0.0
  endloop
endfacet
facet normal 0.0 0.0 -1.0
  outer loop
    vertex 5.5681483474218645 -4.482361909794959 0.0
    vertex 5.568148347421864 89.48236190979496 0.0
    vertex 5.767949192431123 89.0 0.0
  endloop
endfacet
facet normal 0.0 0.0 -1.0
  outer loop
    vertex 5.5681483474218645 -4.482361909794959 0.0
    vertex 5.767949192431123 89.0 0.0
    vertex 5.767949192431123 -4.000000000000001 0.0
  endloop
endfacet
facet normal 0.0 0.0 -1.0
  outer loop
    vertex 5.767949192431123 -4.000000000000001 0.0
    vertex 5.767949192431123 89.0 0.0
    vertex 6.085786437626904 88.58578643762691 0.0
  endloop
endfacet
facet normal 0.0 0.0 -1.0
  outer loop
    vertex 5.767949192431123 -4.000000000000001 0.0
    vertex 6.085786437626904 88.58578643762691 0.0
    vertex 6.085786437626905 -3.5857864376269064 0.0
  endloop
endfacet
facet normal 0.0 0.0 -1.0
  outer loop
    vertex 6.085786437626905 -3.5857864376269064 0.0
    vertex 6.085786437626904 88.58578643762691 0.0
    vertex 6.500000000000001 88.26794919243113 0.0
  endloop
endfacet
facet normal 0.0 0.0 -1.0
  outer loop
    vertex 6.085786437626905 -3.5857864376269064 0.0
    vertex 6.500000000000001 88.26794919243113 0.0
    vertex 6.499999999999999 -3.2679491924311237 0.0
  endloop
endfacet
facet normal 0.0 0.0 -1.0
  outer loop
    vertex 6.499999999999999 -3.2679491924311237 0.0
    vertex 6.500000000000001 88.26794919243113 0.0
    vertex 6.982361909794958 -3.0681483474218645 0.0
  endloop
endfacet
facet normal 0.0 0.0 -1.0
  outer loop
    vertex 6.982361909794958 -3.0681483474218645 0.0
    vertex 6.500000000000001 88.26794919243113 0.0
    vertex 6.982361909794959 88.06814834742187 0.0
  endloop
endfacet
facet normal 0.0 0.0 -1.0
  outer loop
    vertex 6.982361909794958 -3.0681483474218645 0.0
    vertex 6.982361909794959 88.06814834742187 0.0
    vertex 7.5 -3.000000000000001 0.0
  endloop
endfacet
facet normal 0.0 0.0 -1.0
  outer loop
    vertex 7.5 -3.000000000000001 0.0
    vertex 6.982361909794959 88.06814834742187 0.0
    vertex 7.499999999999999 88.00000000000001 0.0
  endloop
endfacet
facet normal 0.0 0.0 -1.0
  outer loop
    vertex 7.5 -3.000000000000001 0.0
    vertex 7.499999999999999 88.00000000000001 0.0
    vertex 8.017638090205041 88.06814834742187 0.0
  endloop
endfacet
facet normal 0.0 0.0 -1.0
  outer loop
    vertex 7.5 -3.000000000000001 0.0
    vertex 8.017638090205041 88.06814834742187 0.0
    vertex 8.01763809020504 -3.068148347421864 0.0
  endloop
endfacet
facet normal 0.0 0.0 -1.0
  outer loop
    vertex 8.01763809020504 -3.068148347421864 0.0
    vertex 8.017638090205041 88.06814834742187 0.0
    vertex 8.499999999999998 -3.2679491924311224 0.0
  endloop
endfacet
facet normal 0.0 0.0 -1.0
  outer loop
    vertex 8.499999999999998 -3.2679491924311224 0.0
    vertex 8.017638090205041 88.06814834742187 0.0
    vertex 8.5 88.26794919243113 0.0
  endloop
endfacet
facet normal 0.0 0.0 -1.0
  outer loop
    vertex 8.499999999999998 -3.2679491924311224 0.0
    vertex 8.5 88.26794919243113 0.0
    vertex 8.914213562373094 -3.585786437626905 0.0
  endloop
endfacet
facet normal 0.0 0.0 -1.0
  outer loop
    vertex 8.914213562373094 -3.585786437626905 0.0
    vertex 8.5 88.26794919243113 0.0
    vertex 8.914213562373094 88.58578643762691 0.0
  endloop
endfacet
facet normal 0.0 0.0 -1.0
  outer loop
    vertex 8.914213562373094 -3.585786437626905 0.0
    vertex 8.914213562373094 88.58578643762691 0.0
    vertex 9.232050807568877 89.0 0.0
  endloop
endfacet
facet normal 0.0 0.0 -1.0
  outer loop
    vertex 8.914213562373094 -3.585786437626905 0.0
    vertex 9.232050807568877 89.0 0.0
    vertex 9.232050807568877 -3.9999999999999996 0.0
  endloop
endfacet
facet normal 0.0 0.0 -1.0
  outer loop
    vertex 9.232050807568877 -3.9999999999999996 0.0
    vertex 9.232050807568877 89.0 0.0
    vertex 9.431851652578134 89.48236190979496 0.0
  endloop
endfacet
facet normal 0.0 0.0 -1.0
  outer loop
    vertex 9.232050807568877 -3.9999999999999996 0.0
    vertex 9.431851652578134 89.48236190979496 0.0
    vertex 9.431851652578136 -4.482361909794958 0.0
  endloop
endfacet
facet normal 0.0 0.0 -1.0
  outer loop
    vertex 9.431851652578136 -4.482361909794958 0.0
    vertex 9.431851652578134 89.48236190979496 0.0
    vertex 9.499999999999998 90.0 0.0
  endloop
endfacet
facet normal 0.0 0.0 -1.0
  outer loop
    vertex 9.431851652578136 -4.482361909794958 0.0
    vertex 9.499999999999998 90.0 0.0
    vertex 9.5 -5.0 0.0
  endloop
endfacet
facet normal -0.0 1.0 -0.0
  outer loop
    vertex 0.0 85.0 80.0
    vertex 15.0 85.0 5.0
    vertex 0.0 85.0 5.0
  endloop
endfacet
facet normal -0.0 1.0 -0.0
  outer loop
    vertex 15.0 85.0 5.0
    vertex 0.0 85.0 80.0
    vertex 15.0 85.0 80.0
  endloop
endfacet
facet normal 1.0 -0.0 -0.0
  outer loop
    vertex 15.0 14.999999999999995 10.0
    vertex 15.0 14.999999999999995 80.0
    vertex 15.0 0.0 80.0
  endloop
endfacet
facet normal 1.0 -0.0 -0.0
  outer loop
    vertex 15.0 14.999999999999995 80.0
    vertex 15.0 14.999999999999995 10.0
    vertex 15.0 15.0 49.0
  endloop
endfacet
facet normal 1.0 -0.0 -0.0
  outer loop
    vertex 15.0 14.999999999999995 80.0
    vertex 15.0 15.0 49.0
    vertex 15.0 15.0 55.0
  endloop
endfacet
facet normal 1.0 -0.0 -0.0
  outer loop
    vertex 15.0 15.0 55.0
    vertex 15.0 15.0 49.0
    vertex 15.0 70.0 49.0
  endloop
endfacet
facet normal 1.0 -0.0 -0.0
  outer loop
    vertex 15.0 15.0 55.0
    vertex 15.0 70.0 49.0
    vertex 15.0 70.0 55.0
  endloop
endfacet
facet normal 1.0 -0.0 -0.0
  outer loop
    vertex 15.0 95.0 0.0
    vertex 15.0 -10.0 5.0
    vertex 15.0 -10.0 0.0
  endloop
endfacet
facet normal 1.0 -0.0 -0.0
  outer loop
    vertex 15.0 -10.0 5.0
    vertex 15.0 95.0 0.0
    vertex 15.0 0.0 5.0
  endloop
endfacet
facet normal 1.0 -0.0 -0.0
  outer loop
    vertex 15.0 0.0 5.0
    vertex 15.0 95.0 0.0
    vertex 15.0 14.999999999999995 10.0
  endloop
endfacet
facet normal 1.0 -0.0 -0.0
  outer loop
    vertex 15.0 0.0 5.0
    vertex 15.0 14.999999999999995 10.0
    vertex 15.0 0.0 80.0
  endloop
endfacet
facet normal 1.0 -0.0 -0.0
  outer loop
    vertex 15.0 14.999999999999995 10.0
    vertex 15.0 95.0 0.0
    vertex 15.0 70.0 10.0
  endloop
endfacet
facet normal 1.0 -0.0 -0.0
  outer loop
    vertex 15.0 70.0 10.0
    vertex 15.0 95.0 0.0
    vertex 15.0 85.0 5.0
  endloop
endfacet
facet normal 1.0 -0.0 -0.0
  outer loop
    vertex 15.0 70.0 10.0
    vertex 15.0 85.0 5.0
    vertex 15.0 70.0 49.0
  endloop
endfacet
facet normal 1.0 -0.0 -0.0
  outer loop
    vertex 15.0 70.0 49.0
    vertex 15.0 85.0 5.0
    vertex 15.0 70.0 55.0
  endloop
endfacet
facet normal 1.0 -0.0 -0.0
  outer loop
    vertex 15.0 70.0 55.0
    vertex 15.0 85.0 5.0
    vertex 15.0 70.0 80.0
  endloop
endfacet
facet normal 1.0 -0.0 -0.0
  outer loop
    vertex 15.0 85.0 5.0
    vertex 15.0 95.0 0.0
    vertex 15.0 95.0 5.0
  endloop
endfacet
facet normal 1.0 -0.0 -0.0
  outer loop
    vertex 15.0 85.0 80.0
    vertex 15.0 70.0 80.0
    vertex 15.0 85.0 5.0
  endloop
endfacet
facet normal 0.0 -1.0 0.0
  outer loop
    vertex 15.0 0.0 80.0
    vertex 0.0 0.0 5.0
    vertex 15.0 0.0 5.0
  endloop
endfacet
facet normal 0.0 -1.0 0.0
  outer loop
    vertex 0.0 0.0 5.0
    vertex 15.0 0.0 80.0
    vertex 0.0 0.0 80.0
  endloop
endfacet
facet normal -1.0 0.0 0.0
  outer loop
    vertex 0.0 15.000000000000007 80.0
    vertex 0.0 0.0 5.0
    vertex 0.0 0.0 80.0
  endloop
endfacet
facet normal -1.0 0.0 0.0
  outer loop
    vertex 0.0 0.0 5.0
    vertex 0.0 15.000000000000007 80.0
    vertex 0.0 15.0 55.0
  endloop
endfacet
facet normal -1.0 0.0 0.0
  outer loop
    vertex 0.0 85.0 80.0
    vertex 0.0 70.0 55.0
    vertex 0.0 70.0 80.0
  endloop
endfacet
facet normal -1.0 0.0 0.0
  outer loop
    vertex 0.0 70.0 55.0
    vertex 0.0 85.0 80.0
    vertex 0.0 70.0 49.0
  endloop
endfacet
facet normal -1.0 0.0 0.0
  outer loop
    vertex 0.0 70.0 49.0
    vertex 0.0 85.0 80.0
    vertex 0.0 70.0 10.0
  endloop
endfacet
facet normal -1.0 0.0 0.0
  outer loop
    vertex 0.0 0.0 5.0
    vertex 0.0 -10.0 0.0
    vertex 0.0 -10.0 5.0
  endloop
endfacet
facet normal -1.0 0.0 0.0
  outer loop
    vertex 0.0 -10.0 0.0
    vertex 0.0 0.0 5.0
    vertex 0.0 95.0 0.0
  endloop
endfacet
facet normal -1.0 0.0 0.0
  outer loop
    vertex 0.0 95.0 0.0
    vertex 0.0 0.0 5.0
    vertex 0.0 15.000000000000007 10.0
  endloop
endfacet
facet normal -1.0 0.0 0.0
  outer loop
    vertex 0.0 15.000000000000007 10.0
    vertex 0.0 0.0 5.0
    vertex 0.0 15.0 49.0
  endloop
endfacet
facet normal -1.0 0.0 0.0
  outer loop
    vertex 0.0 15.0 49.0
    vertex 0.0 0.0 5.0
    vertex 0.0 15.0 55.0
  endloop
endfacet
facet normal -1.0 0.0 0.0
  outer loop
    vertex 0.0 95.0 0.0
    vertex 0.0 15.000000000000007 10.0
    vertex 0.0 70.0 10.0
  endloop
endfacet
facet normal -1.0 0.0 0.0
  outer loop
    vertex 0.0 95.0 0.0
    vertex 0.0 70.0 10.0
    vertex 0.0 85.0 5.0
  endloop
endfacet
facet normal -1.0 0.0 0.0
  outer loop
    vertex 0.0 85.0 5.0
    vertex 0.0 70.0 10.0
    vertex 0.0 85.0 80.0
  endloop
endfacet
facet normal -1.0 0.0 0.0
  outer loop
    vertex 0.0 95.0 0.0
    vertex 0.0 85.0 5.0
    vertex 0.0 95.0 5.0
  endloop
endfacet
facet normal -1.0 0.0 0.0
  outer loop
    vertex 0.0 70.0 55.0
    vertex 0.0 15.0 49.0
    vertex 0.0 15.0 55.0
  endloop
endfacet
facet normal -1.0 0.0 0.0
  outer loop
    vertex 0.0 15.0 49.0
    vertex 0.0 70.0 55.0
    vertex 0.0 70.0 49.0
  endloop
endfacet
facet normal -0.0 -0.0 1.0
  outer loop
    vertex 15.0 14.999999999999995 10.0
    vertex 0.0 70.0 10.0
    vertex 0.0 15.000000000000007 10.0
  endloop
endfacet
facet normal -0.0 -0.0 1.0
  outer loop
    vertex 0.0 70.0 10.0
    vertex 15.0 14.999999999999995 10.0
    vertex 15.0 70.0 10.0
  endloop
endfacet
facet normal -0.0 -0.0 1.0
  outer loop
    vertex 0.0 70.0 80.0
    vertex 5.854551732809569 76.55000000000001 80.0
    vertex 0.0 85.0 80.0
  endloop
endfacet
facet normal -0.0 -0.0 1.0
  outer loop
    vertex 5.854551732809569 76.55000000000001 80.0
    vertex 0.0 70.0 80.0
    vertex 6.1564971157455615 76.15649711574557 80.0
  endloop
endfacet
facet normal -0.0 -0.0 1.0
  outer loop
    vertex 6.1564971157455615 76.15649711574557 80.0
    vertex 0.0 70.0 80.0
    vertex 6.550000000000001 75.85455173280957 80.0
  endloop
endfacet
facet normal -0.0 -0.0 1.0
  outer loop
    vertex 6.550000000000001 75.85455173280957 80.0
    vertex 0.0 70.0 80.0
    vertex 15.0 70.0 80.0
  endloop
endfacet
facet normal -0.0 -0.0 1.0
  outer loop
    vertex 0.0 85.0 80.0
    vertex 5.854551732809569 76.55000000000001 80.0
    vertex 5.6647409300507725 77.00824381430522 80.0
  endloop
endfacet
facet normal -0.0 -0.0 1.0
  outer loop
    vertex 0.0 85.0 80.0
    vertex 5.6647409300507725 77.00824381430522 80.0
    vertex 5.600000000000002 77.5 80.0
  endloop
endfacet
facet normal -0.0 -0.0 1.0
  outer loop
    vertex 6.550000000000001 75.85455173280957 80.0
    vertex 15.0 70.0 80.0
    vertex 7.008243814305211 75.66474093005078 80.0
  endloop
endfacet
facet normal -0.0 -0.0 1.0
  outer loop
    vertex 7.008243814305211 75.66474093005078 80.0
    vertex 15.0 70.0 80.0
    vertex 7.499999999999999 75.60000000000001 80.0
  endloop
endfacet
facet normal -0.0 -0.0 1.0
  outer loop
    vertex 7.499999999999999 75.60000000000001 80.0
    vertex 15.0 70.0 80.0
    vertex 7.99175618569479 75.66474093005078 80.0
  endloop
endfacet
facet normal -0.0 -0.0 1.0
  outer loop
    vertex 7.99175618569479 75.66474093005078 80.0
    vertex 15.0 70.0 80.0
    vertex 8.45 75.85455173280957 80.0
  endloop
endfacet
facet normal -0.0 -0.0 1.0
  outer loop
    vertex 8.45 75.85455173280957 80.0
    vertex 15.0 70.0 80.0
    vertex 8.843502884254438 76.15649711574557 80.0
  endloop
endfacet
facet normal -0.0 -0.0 1.0
  outer loop
    vertex 8.843502884254438 76.15649711574557 80.0
    vertex 15.0 70.0 80.0
    vertex 9.14544826719043 76.55000000000001 80.0
  endloop
endfacet
facet normal -0.0 -0.0 1.0
  outer loop
    vertex 9.14544826719043 76.55000000000001 80.0
    vertex 15.0 70.0 80.0
    vertex 9.335259069949226 77.00824381430522 80.0
  endloop
endfacet
facet normal -0.0 -0.0 1.0
  outer loop
    vertex 9.335259069949226 77.00824381430522 80.0
    vertex 15.0 70.0 80.0
    vertex 9.399999999999995 77.5 80.0
  endloop
endfacet
facet normal -0.0 -0.0 1.0
  outer loop
    vertex 0.0 85.0 80.0
    vertex 6.549999999999999 79.14544826719043 80.0
    vertex 15.0 85.0 80.0
  endloop
endfacet
facet normal -0.0 -0.0 1.0
  outer loop
    vertex 6.549999999999999 79.14544826719043 80.0
    vertex 0.0 85.0 80.0
    vertex 6.1564971157455615 78.84350288425445 80.0
  endloop
endfacet
facet normal -0.0 -0.0 1.0
  outer loop
    vertex 6.1564971157455615 78.84350288425445 80.0
    vertex 0.0 85.0 80.0
    vertex 5.854551732809568 78.45 80.0
  endloop
endfacet
facet normal -0.0 -0.0 1.0
  outer loop
    vertex 5.854551732809568 78.45 80.0
    vertex 0.0 85.0 80.0
    vertex 5.6647409300507725 77.9917561856948 80.0
  endloop
endfacet
facet normal -0.0 -0.0 1.0
  outer loop
    vertex 5.6647409300507725 77.9917561856948 80.0
    vertex 0.0 85.0 80.0
    vertex 5.600000000000002 77.5 80.0
  endloop
endfacet
facet normal -0.0 -0.0 1.0
  outer loop
    vertex 15.0 85.0 80.0
    vertex 6.549999999999999 79.14544826719043 80.0
    vertex 7.008243814305209 79.33525906994923 80.0
  endloop
endfacet
facet normal -0.0 -0.0 1.0
  outer loop
    vertex 15.0 85.0 80.0
    vertex 7.008243814305209 79.33525906994923 80.0
    vertex 7.499999999999999 79.4 80.0
  endloop
endfacet
facet normal -0.0 -0.0 1.0
  outer loop
    vertex 15.0 85.0 80.0
    vertex 7.499999999999999 79.4 80.0
    vertex 7.991756185694787 79.33525906994923 80.0
  endloop
endfacet
facet normal -0.0 -0.0 1.0
  outer loop
    vertex 15.0 85.0 80.0
    vertex 7.991756185694787 79.33525906994923 80.0
    vertex 8.449999999999998 79.14544826719043 80.0
  endloop
endfacet
facet normal -0.0 -0.0 1.0
  outer loop
    vertex 15.0 85.0 80.0
    vertex 8.449999999999998 79.14544826719043 80.0
    vertex 8.843502884254436 78.84350288425445 80.0
  endloop
endfacet
facet normal -0.0 -0.0 1.0
  outer loop
    vertex 15.0 85.0 80.0
    vertex 8.843502884254436 78.84350288425445 80.0
    vertex 9.145448267190428 78.45 80.0
  endloop
endfacet
facet normal -0.0 -0.0 1.0
  outer loop
    vertex 15.0 85.0 80.0
    vertex 9.145448267190428 78.45 80.0
    vertex 9.335259069949226 77.9917561856948 80.0
  endloop
endfacet
facet normal -0.0 -0.0 1.0
  outer loop
    vertex 15.0 85.0 80.0
    vertex 9.335259069949226 77.9917561856948 80.0
    vertex 9.399999999999995 77.5 80.0
  endloop
endfacet
facet normal -0.0 -0.0 1.0
  outer loop
    vertex 15.0 85.0 80.0
    vertex 9.399999999999995 77.5 80.0
    vertex 15.0 70.0 80.0
  endloop
endfacet
facet normal 0.0 -1.0 0.0
  outer loop
    vertex 15.0 70.0 80.0
    vertex 0.0 70.0 55.0
    vertex 15.0 70.0 55.0
  endloop
endfacet
facet normal 0.0 -1.0 0.0
  outer loop
    vertex 0.0 70.0 55.0
    vertex 15.0 70.0 80.0
    vertex 0.0 70.0 80.0
  endloop
endfacet
facet normal -0.0 -0.0 1.0
  outer loop
    vertex 0.0 0.0 80.0
    vertex 5.854551732809569 6.550000000000001 80.0
    vertex 0.0 15.000000000000007 80.0
  endloop
endfacet
facet normal -0.0 -0.0 1.0
  outer loop
    vertex 5.854551732809569 6.550000000000001 80.0
    vertex 0.0 0.0 80.0
    vertex 6.156497115745563 6.156497115745561 80.0
  endloop
endfacet
facet normal -0.0 -0.0 1.0
  outer loop
    vertex 6.156497115745563 6.156497115745561 80.0
    vertex 0.0 0.0 80.0
    vertex 6.550000000000003 5.854551732809567 80.0
  endloop
endfacet
facet normal -0.0 -0.0 1.0
  outer loop
    vertex 6.550000000000003 5.854551732809567 80.0
    vertex 0.0 0.0 80.0
    vertex 15.0 0.0 80.0
  endloop
endfacet
facet normal -0.0 -0.0 1.0
  outer loop
    vertex 0.0 15.000000000000007 80.0
    vertex 5.854551732809569 6.550000000000001 80.0
    vertex 5.664740930050774 7.008243814305211 80.0
  endloop
endfacet
facet normal -0.0 -0.0 1.0
  outer loop
    vertex 0.0 15.000000000000007 80.0
    vertex 5.664740930050774 7.008243814305211 80.0
    vertex 5.600000000000003 7.5 80.0
  endloop
endfacet
facet normal -0.0 -0.0 1.0
  outer loop
    vertex 6.550000000000003 5.854551732809567 80.0
    vertex 15.0 0.0 80.0
    vertex 7.008243814305214 5.664740930050771 80.0
  endloop
endfacet
facet normal -0.0 -0.0 1.0
  outer loop
    vertex 7.008243814305214 5.664740930050771 80.0
    vertex 15.0 0.0 80.0
    vertex 7.5000000000000036 5.6000000000000005 80.0
  endloop
endfacet
facet normal -0.0 -0.0 1.0
  outer loop
    vertex 7.5000000000000036 5.6000000000000005 80.0
    vertex 15.0 0.0 80.0
    vertex 7.991756185694794 5.664740930050771 80.0
  endloop
endfacet
facet normal -0.0 -0.0 1.0
  outer loop
    vertex 7.991756185694794 5.664740930050771 80.0
    vertex 15.0 0.0 80.0
    vertex 8.450000000000005 5.8545517328095675 80.0
  endloop
endfacet
facet normal -0.0 -0.0 1.0
  outer loop
    vertex 8.450000000000005 5.8545517328095675 80.0
    vertex 15.0 0.0 80.0
    vertex 8.843502884254445 6.156497115745561 80.0
  endloop
endfacet
facet normal -0.0 -0.0 1.0
  outer loop
    vertex 8.843502884254445 6.156497115745561 80.0
    vertex 15.0 0.0 80.0
    vertex 9.145448267190437 6.5500000000000025 80.0
  endloop
endfacet
facet normal -0.0 -0.0 1.0
  outer loop
    vertex 9.145448267190437 6.5500000000000025 80.0
    vertex 15.0 0.0 80.0
    vertex 9.335259069949235 7.008243814305211 80.0
  endloop
endfacet
facet normal -0.0 -0.0 1.0
  outer loop
    vertex 9.335259069949235 7.008243814305211 80.0
    vertex 15.0 0.0 80.0
    vertex 9.400000000000002 7.5 80.0
  endloop
endfacet
facet normal -0.0 -0.0 1.0
  outer loop
    vertex 0.0 15.000000000000007 80.0
    vertex 6.5500000000000025 9.145448267190433 80.0
    vertex 15.0 14.999999999999995 80.0
  endloop
endfacet
facet normal -0.0 -0.0 1.0
  outer loop
    vertex 6.5500000000000025 9.145448267190433 80.0
    vertex 0.0 15.000000000000007 80.0
    vertex 6.156497115745563 8.843502884254441 80.0
  endloop
endfacet
facet normal -0.0 -0.0 1.0
  outer loop
    vertex 6.156497115745563 8.843502884254441 80.0
    vertex 0.0 15.000000000000007 80.0
    vertex 5.854551732809569 8.45 80.0
  endloop
endfacet
facet normal -0.0 -0.0 1.0
  outer loop
    vertex 5.854551732809569 8.45 80.0
    vertex 0.0 15.000000000000007 80.0
    vertex 5.664740930050773 7.99175618569479 80.0
  endloop
endfacet
facet normal -0.0 -0.0 1.0
  outer loop
    vertex 5.664740930050773 7.99175618569479 80.0
    vertex 0.0 15.000000000000007 80.0
    vertex 5.600000000000003 7.5 80.0
  endloop
endfacet
facet normal -0.0 -0.0 1.0
  outer loop
    vertex 15.0 14.999999999999995 80.0
    vertex 6.5500000000000025 9.145448267190433 80.0
    vertex 7.008243814305214 9.33525906994923 80.0
  endloop
endfacet
facet normal -0.0 -0.0 1.0
  outer loop
    vertex 15.0 14.999999999999995 80.0
    vertex 7.008243814305214 9.33525906994923 80.0
    vertex 7.5000000000000036 9.4 80.0
  endloop
endfacet
facet normal -0.0 -0.0 1.0
  outer loop
    vertex 15.0 14.999999999999995 80.0
    vertex 7.5000000000000036 9.4 80.0
    vertex 7.9917561856947925 9.335259069949231 80.0
  endloop
endfacet
facet normal -0.0 -0.0 1.0
  outer loop
    vertex 15.0 14.999999999999995 80.0
    vertex 7.9917561856947925 9.335259069949231 80.0
    vertex 8.450000000000003 9.145448267190435 80.0
  endloop
endfacet
facet normal -0.0 -0.0 1.0
  outer loop
    vertex 15.0 14.999999999999995 80.0
    vertex 8.450000000000003 9.145448267190435 80.0
    vertex 8.843502884254443 8.843502884254441 80.0
  endloop
endfacet
facet normal -0.0 -0.0 1.0
  outer loop
    vertex 15.0 14.999999999999995 80.0
    vertex 8.843502884254443 8.843502884254441 80.0
    vertex 9.145448267190435 8.450000000000001 80.0
  endloop
endfacet
facet normal -0.0 -0.0 1.0
  outer loop
    vertex 15.0 14.999999999999995 80.0
    vertex 9.145448267190435 8.450000000000001 80.0
    vertex 9.335259069949233 7.991756185694791 80.0
  endloop
endfacet
facet normal -0.0 -0.0 1.0
  outer loop
    vertex 15.0 14.999999999999995 80.0
    vertex 9.335259069949233 7.991756185694791 80.0
    vertex 9.400000000000002 7.5 80.0
  endloop
endfacet
facet normal -0.0 -0.0 1.0
  outer loop
    vertex 15.0 14.999999999999995 80.0
    vertex 9.400000000000002 7.5 80.0
    vertex 15.0 0.0 80.0
  endloop
endfacet
facet normal 3.759955310063863e-16 1.0 -0.0
  outer loop
    vertex 0.0 15.0 49.0
    vertex 15.0 14.999999999999995 10.0
    vertex 0.0 15.000000000000007 10.0
  endloop
endfacet
facet normal 3.759955310063863e-16 1.0 -0.0
  outer loop
    vertex 15.0 14.999999999999995 10.0
    vertex 0.0 15.0 49.0
    vertex 15.0 15.0 49.0
  endloop
endfacet
facet normal 0.0 -1.0 0.0
  outer loop
    vertex 15.0 70.0 49.0
    vertex 0.0 70.0 10.0
    vertex 15.0 70.0 10.0
  endloop
endfacet
facet normal 0.0 -1.0 0.0
  outer loop
    vertex 0.0 70.0 10.0
    vertex 15.0 70.0 49.0
    vertex 0.0 70.0 49.0
  endloop
endfacet
facet normal 0.0 0.0 -1.0
  outer loop
    vertex 15.0 70.0 49.0
    vertex 0.0 15.0 49.0
    vertex 0.0 70.0 49.0
  endloop
endfacet
facet normal 0.0 0.0 -1.0
  outer loop
    vertex 0.0 15.0 49.0
    vertex 15.0 70.0 49.0
    vertex 15.0 15.0 49.0
  endloop
endfacet
facet normal -0.0 -0.0 1.0
  outer loop
    vertex 15.0 15.0 55.0
    vertex 0.0 70.0 55.0
    vertex 0.0 15.0 55.0
  endloop
endfacet
facet normal -0.0 -0.0 1.0
  outer loop
    vertex 0.0 70.0 55.0
    vertex 15.0 15.0 55.0
    vertex 15.0 70.0 55.0
  endloop
endfacet
facet normal 3.7599553100638626e-16 1.0 -0.0
  outer loop
    vertex 0.0 15.000000000000007 80.0
    vertex 15.0 15.0 55.0
    vertex 0.0 15.0 55.0
  endloop
endfacet
facet normal 3.7599553100638626e-16 1.0 -0.0
  outer loop
    vertex 15.0 15.0 55.0
    vertex 0.0 15.000000000000007 80.0
    vertex 15.0 14.999999999999995 80.0
  endloop
endfacet
facet normal 0.0 -1.0 0.0
  outer loop
    vertex 15.0 -10.0 5.0
    vertex 0.0 -10.0 0.0
    vertex 15.0 -10.0 0.0
  endloop
endfacet
facet normal 0.0 -1.0 0.0
  outer loop
    vertex 0.0 -10.0 0.0
    vertex 15.0 -10.0 5.0
    vertex 0.0 -10.0 5.0
  endloop
endfacet
facet normal 0.0 0.0 1.0
  outer loop
    vertex 0.0 -10.0 5.0
    vertex 6.085786437626906 -6.414213562373095 5.0
    vertex 0.0 0.0 5.0
  endloop
endfacet
facet normal 0.0 0.0 1.0
  outer loop
    vertex 6.085786437626906 -6.414213562373095 5.0
    vertex 0.0 -10.0 5.0
    vertex 6.500000000000001 -6.732050807568878 5.0
  endloop
endfacet
facet normal 0.0 0.0 1.0
  outer loop
    vertex 6.500000000000001 -6.732050807568878 5.0
    vertex 0.0 -10.0 5.0
    vertex 6.982361909794959 -6.931851652578135 5.0
  endloop
endfacet
facet normal 0.0 0.0 1.0
  outer loop
    vertex 6.982361909794959 -6.931851652578135 5.0
    vertex 0.0 -10.0 5.0
    vertex 15.0 -10.0 5.0
  endloop
endfacet
facet normal 0.0 0.0 1.0
  outer loop
    vertex 0.0 0.0 5.0
    vertex 6.085786437626906 -6.414213562373095 5.0
    vertex 5.767949192431124 -6.0 5.0
  endloop
endfacet
facet normal 0.0 0.0 1.0
  outer loop
    vertex 0.0 0.0 5.0
    vertex 5.767949192431124 -6.0 5.0
    vertex 5.5681483474218645 -5.517638090205042 5.0
  endloop
endfacet
facet normal 0.0 0.0 1.0
  outer loop
    vertex 0.0 0.0 5.0
    vertex 5.5681483474218645 -5.517638090205042 5.0
    vertex 5.500000000000001 -5.0 5.0
  endloop
endfacet
facet normal 0.0 0.0 1.0
  outer loop
    vertex 6.982361909794959 -6.931851652578135 5.0
    vertex 15.0 -10.0 5.0
    vertex 7.5 -6.999999999999998 5.0
  endloop
endfacet
facet normal 0.0 0.0 1.0
  outer loop
    vertex 7.5 -6.999999999999998 5.0
    vertex 15.0 -10.0 5.0
    vertex 8.017638090205041 -6.931851652578135 5.0
  endloop
endfacet
facet normal 0.0 0.0 1.0
  outer loop
    vertex 8.017638090205041 -6.931851652578135 5.0
    vertex 15.0 -10.0 5.0
    vertex 8.5 -6.732050807568876 5.0
  endloop
endfacet
facet normal 0.0 0.0 1.0
  outer loop
    vertex 8.5 -6.732050807568876 5.0
    vertex 15.0 -10.0 5.0
    vertex 8.914213562373094 -6.414213562373095 5.0
  endloop
endfacet
facet normal 0.0 0.0 1.0
  outer loop
    vertex 8.914213562373094 -6.414213562373095 5.0
    vertex 15.0 -10.0 5.0
    vertex 9.232050807568877 -6.0 5.0
  endloop
endfacet
facet normal 0.0 0.0 1.0
  outer loop
    vertex 9.232050807568877 -6.0 5.0
    vertex 15.0 -10.0 5.0
    vertex 9.431851652578136 -5.5176380902050415 5.0
  endloop
endfacet
facet normal 0.0 0.0 1.0
  outer loop
    vertex 9.431851652578136 -5.5176380902050415 5.0
    vertex 15.0 -10.0 5.0
    vertex 9.5 -5.0 5.0
  endloop
endfacet
facet normal 0.0 0.0 1.0
  outer loop
    vertex 0.0 0.0 5.0
    vertex 6.982361909794958 -3.0681483474218645 5.0
    vertex 15.0 0.0 5.0
  endloop
endfacet
facet normal 0.0 0.0 1.0
  outer loop
    vertex 6.982361909794958 -3.0681483474218645 5.0
    vertex 0.0 0.0 5.0
    vertex 6.499999999999999 -3.2679491924311237 5.0
  endloop
endfacet
facet normal 0.0 0.0 1.0
  outer loop
    vertex 6.499999999999999 -3.2679491924311237 5.0
    vertex 0.0 0.0 5.0
    vertex 6.085786437626905 -3.5857864376269064 5.0
  endloop
endfacet
facet normal 0.0 0.0 1.0
  outer loop
    vertex 6.085786437626905 -3.5857864376269064 5.0
    vertex 0.0 0.0 5.0
    vertex 5.767949192431123 -4.000000000000001 5.0
  endloop
endfacet
facet normal 0.0 0.0 1.0
  outer loop
    vertex 5.767949192431123 -4.000000000000001 5.0
    vertex 0.0 0.0 5.0
    vertex 5.5681483474218645 -4.482361909794959 5.0
  endloop
endfacet
facet normal 0.0 0.0 1.0
  outer loop
    vertex 5.5681483474218645 -4.482361909794959 5.0
    vertex 0.0 0.0 5.0
    vertex 5.500000000000001 -5.0 5.0
  endloop
endfacet
facet normal 0.0 0.0 1.0
  outer loop
    vertex 15.0 0.0 5.0
    vertex 6.982361909794958 -3.0681483474218645 5.0
    vertex 7.5 -3.000000000000001 5.0
  endloop
endfacet
facet normal 0.0 0.0 1.0
  outer loop
    vertex 15.0 0.0 5.0
    vertex 7.5 -3.000000000000001 5.0
    vertex 8.01763809020504 -3.068148347421864 5.0
  endloop
endfacet
facet normal 0.0 0.0 1.0
  outer loop
    vertex 15.0 0.0 5.0
    vertex 8.01763809020504 -3.068148347421864 5.0
    vertex 8.499999999999998 -3.2679491924311224 5.0
  endloop
endfacet
facet normal 0.0 0.0 1.0
  outer loop
    vertex 15.0 0.0 5.0
    vertex 8.499999999999998 -3.2679491924311224 5.0
    vertex 8.914213562373094 -3.585786437626905 5.0
  endloop
endfacet
facet normal 0.0 0.0 1.0
  outer loop
    vertex 15.0 0.0 5.0
    vertex 8.914213562373094 -3.585786437626905 5.0
    vertex 9.232050807568877 -3.9999999999999996 5.0
  endloop
endfacet
facet normal 0.0 0.0 1.0
  outer loop
    vertex 15.0 0.0 5.0
    vertex 9.232050807568877 -3.9999999999999996 5.0
    vertex 9.431851652578136 -4.482361909794958 5.0
  endloop
endfacet
facet normal 0.0 0.0 1.0
  outer loop
    vertex 15.0 0.0 5.0
    vertex 9.431851652578136 -4.482361909794958 5.0
    vertex 9.5 -5.0 5.0
  endloop
endfacet
facet normal 0.0 0.0 1.0
  outer loop
    vertex 15.0 0.0 5.0
    vertex 9.5 -5.0 5.0
    vertex 15.0 -10.0 5.0
  endloop
endfacet
facet normal 0.0 1.0 0.0
  outer loop
    vertex 0.0 95.0 5.0
    vertex 15.0 95.0 0.0
    vertex 0.0 95.0 0.0
  endloop
endfacet
facet normal 0.0 1.0 0.0
  outer loop
    vertex 15.0 95.0 0.0
    vertex 0.0 95.0 5.0
    vertex 15.0 95.0 5.0
  endloop
endfacet
facet normal -0.0 0.0 1.0
  outer loop
    vertex 0.0 85.0 5.0
    vertex 6.085786437626904 88.58578643762691 5.0
    vertex 0.0 95.0 5.0
  endloop
endfacet
facet normal -0.0 0.0 1.0
  outer loop
    vertex 6.085786437626904 88.58578643762691 5.0
    vertex 0.0 85.0 5.0
    vertex 6.500000000000001 88.26794919243113 5.0
  endloop
endfacet
facet normal -0.0 0.0 1.0
  outer loop
    vertex 6.500000000000001 88.26794919243113 5.0
    vertex 0.0 85.0 5.0
    vertex 6.982361909794959 88.06814834742187 5.0
  endloop
endfacet
facet normal -0.0 0.0 1.0
  outer loop
    vertex 6.982361909794959 88.06814834742187 5.0
    vertex 0.0 85.0 5.0
    vertex 15.0 85.0 5.0
  endloop
endfacet
facet normal -0.0 0.0 1.0
  outer loop
    vertex 0.0 95.0 5.0
    vertex 6.085786437626904 88.58578643762691 5.0
    vertex 5.767949192431123 89.0 5.0
  endloop
endfacet
facet normal -0.0 0.0 1.0
  outer loop
    vertex 0.0 95.0 5.0
    vertex 5.767949192431123 89.0 5.0
    vertex 5.568148347421864 89.48236190979496 5.0
  endloop
endfacet
facet normal -0.0 0.0 1.0
  outer loop
    vertex 0.0 95.0 5.0
    vertex 5.568148347421864 89.48236190979496 5.0
    vertex 5.5 90.0 5.0
  endloop
endfacet
facet normal -0.0 0.0 1.0
  outer loop
    vertex 6.982361909794959 88.06814834742187 5.0
    vertex 15.0 85.0 5.0
    vertex 7.499999999999999 88.00000000000001 5.0
  endloop
endfacet
facet normal -0.0 0.0 1.0
  outer loop
    vertex 7.499999999999999 88.00000000000001 5.0
    vertex 15.0 85.0 5.0
    vertex 8.017638090205041 88.06814834742187 5.0
  endloop
endfacet
facet normal -0.0 0.0 1.0
  outer loop
    vertex 8.017638090205041 88.06814834742187 5.0
    vertex 15.0 85.0 5.0
    vertex 8.5 88.26794919243113 5.0
  endloop
endfacet
facet normal -0.0 0.0 1.0
  outer loop
    vertex 8.5 88.26794919243113 5.0
    vertex 15.0 85.0 5.0
    vertex 8.914213562373094 88.58578643762691 5.0
  endloop
endfacet
facet normal -0.0 0.0 1.0
  outer loop
    vertex 8.914213562373094 88.58578643762691 5.0
    vertex 15.0 85.0 5.0
    vertex 9.232050807568877 89.0 5.0
  endloop
endfacet
facet normal -0.0 0.0 1.0
  outer loop
    vertex 9.232050807568877 89.0 5.0
    vertex 15.0 85.0 5.0
    vertex 9.431851652578134 89.48236190979496 5.0
  endloop
endfacet
facet normal -0.0 0.0 1.0
  outer loop
    vertex 9.431851652578134 89.48236190979496 5.0
    vertex 15.0 85.0 5.0
    vertex 9.499999999999998 90.0 5.0
  endloop
endfacet
facet normal -0.0 0.0 1.0
  outer loop
    vertex 0.0 95.0 5.0
    vertex 6.982361909794958 91.93185165257813 5.0
    vertex 15.0 95.0 5.0
  endloop
endfacet
facet normal -0.0 0.0 1.0
  outer loop
    vertex 6.982361909794958 91.93185165257813 5.0
    vertex 0.0 95.0 5.0
    vertex 6.499999999999999 91.73205080756888 5.0
  endloop
endfacet
facet normal -0.0 0.0 1.0
  outer loop
    vertex 6.499999999999999 91.73205080756888 5.0
    vertex 0.0 95.0 5.0
    vertex 6.085786437626904 91.4142135623731 5.0
  endloop
endfacet
facet normal -0.0 0.0 1.0
  outer loop
    vertex 6.085786437626904 91.4142135623731 5.0
    vertex 0.0 95.0 5.0
    vertex 5.767949192431122 91.0 5.0
  endloop
endfacet
facet normal -0.0 0.0 1.0
  outer loop
    vertex 5.767949192431122 91.0 5.0
    vertex 0.0 95.0 5.0
    vertex 5.568148347421864 90.51763809020505 5.0
  endloop
endfacet
facet normal -0.0 0.0 1.0
  outer loop
    vertex 5.568148347421864 90.51763809020505 5.0
    vertex 0.0 95.0 5.0
    vertex 5.5 90.0 5.0
  endloop
endfacet
facet normal -0.0 0.0 1.0
  outer loop
    vertex 15.0 95.0 5.0
    vertex 6.982361909794958 91.93185165257813 5.0
    vertex 7.499999999999999 92.0 5.0
  endloop
endfacet
facet normal -0.0 0.0 1.0
  outer loop
    vertex 15.0 95.0 5.0
    vertex 7.499999999999999 92.0 5.0
    vertex 8.01763809020504 91.93185165257813 5.0
  endloop
endfacet
facet normal -0.0 0.0 1.0
  outer loop
    vertex 15.0 95.0 5.0
    vertex 8.01763809020504 91.93185165257813 5.0
    vertex 8.499999999999998 91.73205080756888 5.0
  endloop
endfacet
facet normal -0.0 0.0 1.0
  outer loop
    vertex 15.0 95.0 5.0
    vertex 8.499999999999998 91.73205080756888 5.0
    vertex 8.914213562373094 91.4142135623731 5.0
  endloop
endfacet
facet normal -0.0 0.0 1.0
  outer loop
    vertex 15.0 95.0 5.0
    vertex 8.914213562373094 91.4142135623731 5.0
    vertex 9.232050807568877 91.0 5.0
  endloop
endfacet
facet normal -0.0 0.0 1.0
  outer loop
    vertex 15.0 95.0 5.0
    vertex 9.232050807568877 91.0 5.0
    vertex 9.431851652578134 90.51763809020505 5.0
  endloop
endfacet
facet normal -0.0 0.0 1.0
  outer loop
    vertex 15.0 95.0 5.0
    vertex 9.431851652578134 90.51763809020505 5.0
    vertex 9.499999999999998 90.0 5.0
  endloop
endfacet
facet normal -0.0 0.0 1.0
  outer loop
    vertex 15.0 95.0 5.0
    vertex 9.499999999999998 90.0 5.0
    vertex 15.0 85.0 5.0
  endloop
endfacet
facet normal 0.9914448613738106 0.13052619222005077 0.0
  outer loop
    vertex 5.5 90.0 0.0
    vertex 5.568148347421864 89.48236190979496 5.0
    vertex 5.568148347421864 89.48236190979496 0.0
  endloop
endfacet
facet normal 0.9914448613738106 0.13052619222005077 0.0
  outer loop
    vertex 5.568148347421864 89.48236190979496 5.0
    vertex 5.5 90.0 0.0
    vertex 5.5 90.0 5.0
  endloop
endfacet
facet normal 0.9238795325112845 0.3826834323650951 0.0
  outer loop
    vertex 5.568148347421864 89.48236190979496 0.0
    vertex 5.767949192431123 89.0 5.0
    vertex 5.767949192431123 89.0 0.0
  endloop
endfacet
facet normal 0.9238795325112845 0.3826834323650951 0.0
  outer loop
    vertex 5.767949192431123 89.0 5.0
    vertex 5.568148347421864 89.48236190979496 0.0
    vertex 5.568148347421864 89.48236190979496 5.0
  endloop
endfacet
facet normal 0.7933533402912399 0.6087614290087143 0.0
  outer loop
    vertex 5.767949192431123 89.0 0.0
    vertex 6.085786437626904 88.58578643762691 5.0
    vertex 6.085786437626904 88.58578643762691 0.0
  endloop
endfacet
facet normal 0.7933533402912399 0.6087614290087143 0.0
  outer loop
    vertex 6.085786437626904 88.58578643762691 5.0
    vertex 5.767949192431123 89.0 0.0
    vertex 5.767949192431123 89.0 5.0
  endloop
endfacet
facet normal 0.6087614290087167 0.7933533402912383 0.0
  outer loop
    vertex 6.085786437626904 88.58578643762691 5.0
    vertex 6.500000000000001 88.26794919243113 0.0
    vertex 6.085786437626904 88.58578643762691 0.0
  endloop
endfacet
facet normal 0.6087614290087167 0.7933533402912383 0.0
  outer loop
    vertex 6.500000000000001 88.26794919243113 0.0
    vertex 6.085786437626904 88.58578643762691 5.0
    vertex 6.500000000000001 88.26794919243113 5.0
  endloop
endfacet
facet normal 0.38268343236508207 0.92387953251129 0.0
  outer loop
    vertex 6.500000000000001 88.26794919243113 5.0
    vertex 6.982361909794959 88.06814834742187 0.0
    vertex 6.500000000000001 88.26794919243113 0.0
  endloop
endfacet
facet normal 0.38268343236508207 0.92387953251129 0.0
  outer loop
    vertex 6.982361909794959 88.06814834742187 0.0
    vertex 6.500000000000001 88.26794919243113 5.0
    vertex 6.982361909794959 88.06814834742187 5.0
  endloop
endfacet
facet normal 0.13052619222005216 0.9914448613738104 0.0
  outer loop
    vertex 6.982361909794959 88.06814834742187 5.0
    vertex 7.499999999999999 88.00000000000001 0.0
    vertex 6.982361909794959 88.06814834742187 0.0
  endloop
endfacet
facet normal 0.13052619222005216 0.9914448613738104 0.0
  outer loop
    vertex 7.499999999999999 88.00000000000001 0.0
    vertex 6.982361909794959 88.06814834742187 5.0
    vertex 7.499999999999999 88.00000000000001 5.0
  endloop
endfacet
facet normal -0.13052619222005143 0.9914448613738105 -0.0
  outer loop
    vertex 7.499999999999999 88.00000000000001 5.0
    vertex 8.017638090205041 88.06814834742187 0.0
    vertex 7.499999999999999 88.00000000000001 0.0
  endloop
endfacet
facet normal -0.13052619222005143 0.9914448613738105 -0.0
  outer loop
    vertex 8.017638090205041 88.06814834742187 0.0
    vertex 7.499999999999999 88.00000000000001 5.0
    vertex 8.017638090205041 88.06814834742187 5.0
  endloop
endfacet
facet normal -0.38268343236508207 0.92387953251129 -0.0
  outer loop
    vertex 8.017638090205041 88.06814834742187 5.0
    vertex 8.5 88.26794919243113 0.0
    vertex 8.017638090205041 88.06814834742187 0.0
  endloop
endfacet
facet normal -0.38268343236508207 0.92387953251129 -0.0
  outer loop
    vertex 8.5 88.26794919243113 0.0
    vertex 8.017638090205041 88.06814834742187 5.0
    vertex 8.5 88.26794919243113 5.0
  endloop
endfacet
facet normal -0.608761429008718 0.7933533402912374 -0.0
  outer loop
    vertex 8.5 88.26794919243113 5.0
    vertex 8.914213562373094 88.58578643762691 0.0
    vertex 8.5 88.26794919243113 0.0
  endloop
endfacet
facet normal -0.608761429008718 0.7933533402912374 -0.0
  outer loop
    vertex 8.914213562373094 88.58578643762691 0.0
    vertex 8.5 88.26794919243113 5.0
    vertex 8.914213562373094 88.58578643762691 5.0
  endloop
endfacet
facet normal -0.7933533402912399 0.6087614290087143 -0.0
  outer loop
    vertex 9.232050807568877 89.0 5.0
    vertex 8.914213562373094 88.58578643762691 0.0
    vertex 8.914213562373094 88.58578643762691 5.0
  endloop
endfacet
facet normal -0.7933533402912399 0.6087614290087143 -0.0
  outer loop
    vertex 8.914213562373094 88.58578643762691 0.0
    vertex 9.232050807568877 89.0 5.0
    vertex 9.232050807568877 89.0 0.0
  endloop
endfacet
facet normal -0.9238795325112855 0.38268343236509283 -0.0
  outer loop
    vertex 9.431851652578134 89.48236190979496 5.0
    vertex 9.232050807568877 89.0 0.0
    vertex 9.232050807568877 89.0 5.0
  endloop
endfacet
facet normal -0.9238795325112855 0.38268343236509283 -0.0
  outer loop
    vertex 9.232050807568877 89.0 0.0
    vertex 9.431851652578134 89.48236190979496 5.0
    vertex 9.431851652578134 89.48236190979496 0.0
  endloop
endfacet
facet normal -0.9914448613738106 0.13052619222005077 -0.0
  outer loop
    vertex 9.499999999999998 90.0 5.0
    vertex 9.431851652578134 89.48236190979496 0.0
    vertex 9.431851652578134 89.48236190979496 5.0
  endloop
endfacet
facet normal -0.9914448613738106 0.13052619222005077 -0.0
  outer loop
    vertex 9.431851652578134 89.48236190979496 0.0
    vertex 9.499999999999998 90.0 5.0
    vertex 9.499999999999998 90.0 0.0
  endloop
endfacet
facet normal -0.9914448613738106 -0.13052619222005077 -0.0
  outer loop
    vertex 9.431851652578134 90.51763809020505 5.0
    vertex 9.499999999999998 90.0 0.0
    vertex 9.499999999999998 90.0 5.0
  endloop
endfacet
facet normal -0.9914448613738106 -0.13052619222005077 -0.0
  outer loop
    vertex 9.499999999999998 90.0 0.0
    vertex 9.431851652578134 90.51763809020505 5.0
    vertex 9.431851652578134 90.51763809020505 0.0
  endloop
endfacet
facet normal -0.9238795325112855 -0.38268343236509283 -0.0
  outer loop
    vertex 9.232050807568877 91.0 5.0
    vertex 9.431851652578134 90.51763809020505 0.0
    vertex 9.431851652578134 90.51763809020505 5.0
  endloop
endfacet
facet normal -0.9238795325112855 -0.38268343236509283 -0.0
  outer loop
    vertex 9.431851652578134 90.51763809020505 0.0
    vertex 9.232050807568877 91.0 5.0
    vertex 9.232050807568877 91.0 0.0
  endloop
endfacet
facet normal -0.7933533402912386 -0.6087614290087161 -0.0
  outer loop
    vertex 8.914213562373094 91.4142135623731 5.0
    vertex 9.232050807568877 91.0 0.0
    vertex 9.232050807568877 91.0 5.0
  endloop
endfacet
facet normal -0.7933533402912386 -0.6087614290087161 -0.0
  outer loop
    vertex 9.232050807568877 91.0 0.0
    vertex 8.914213562373094 91.4142135623731 5.0
    vertex 8.914213562373094 91.4142135623731 0.0
  endloop
endfacet
facet normal -0.608761429008718 -0.7933533402912374 -0.0
  outer loop
    vertex 8.914213562373094 91.4142135623731 5.0
    vertex 8.499999999999998 91.73205080756888 0.0
    vertex 8.914213562373094 91.4142135623731 0.0
  endloop
endfacet
facet normal -0.608761429008718 -0.7933533402912374 -0.0
  outer loop
    vertex 8.499999999999998 91.73205080756888 0.0
    vertex 8.914213562373094 91.4142135623731 5.0
    vertex 8.499999999999998 91.73205080756888 5.0
  endloop
endfacet
facet normal -0.38268343236508207 -0.92387953251129 -0.0
  outer loop
    vertex 8.499999999999998 91.73205080756888 5.0
    vertex 8.01763809020504 91.93185165257813 0.0
    vertex 8.499999999999998 91.73205080756888 0.0
  endloop
endfacet
facet normal -0.38268343236508207 -0.92387953251129 -0.0
  outer loop
    vertex 8.01763809020504 91.93185165257813 0.0
    vertex 8.499999999999998 91.73205080756888 5.0
    vertex 8.01763809020504 91.93185165257813 5.0
  endloop
endfacet
facet normal -0.1305261922200518 -0.9914448613738104 -0.0
  outer loop
    vertex 8.01763809020504 91.93185165257813 5.0
    vertex 7.499999999999999 92.0 0.0
    vertex 8.01763809020504 91.93185165257813 0.0
  endloop
endfacet
facet normal -0.1305261922200518 -0.9914448613738104 -0.0
  outer loop
    vertex 7.499999999999999 92.0 0.0
    vertex 8.01763809020504 91.93185165257813 5.0
    vertex 7.499999999999999 92.0 5.0
  endloop
endfacet
facet normal 0.1305261922200518 -0.9914448613738104 -0.0
  outer loop
    vertex 7.499999999999999 92.0 5.0
    vertex 6.982361909794958 91.93185165257813 0.0
    vertex 7.499999999999999 92.0 0.0
  endloop
endfacet
facet normal 0.1305261922200518 -0.9914448613738104 -0.0
  outer loop
    vertex 6.982361909794958 91.93185165257813 0.0
    vertex 7.499999999999999 92.0 5.0
    vertex 6.982361909794958 91.93185165257813 5.0
  endloop
endfacet
facet normal 0.38268343236508207 -0.92387953251129 -0.0
  outer loop
    vertex 6.982361909794958 91.93185165257813 5.0
    vertex 6.499999999999999 91.73205080756888 0.0
    vertex 6.982361909794958 91.93185165257813 0.0
  endloop
endfacet
facet normal 0.38268343236508207 -0.92387953251129 -0.0
  outer loop
    vertex 6.499999999999999 91.73205080756888 0.0
    vertex 6.982361909794958 91.93185165257813 5.0
    vertex 6.499999999999999 91.73205080756888 5.0
  endloop
endfacet
facet normal 0.608761429008718 -0.7933533402912374 -0.0
  outer loop
    vertex 6.499999999999999 91.73205080756888 5.0
    vertex 6.085786437626904 91.4142135623731 0.0
    vertex 6.499999999999999 91.73205080756888 0.0
  endloop
endfacet
facet normal 0.608761429008718 -0.7933533402912374 -0.0
  outer loop
    vertex 6.085786437626904 91.4142135623731 0.0
    vertex 6.499999999999999 91.73205080756888 5.0
    vertex 6.085786437626904 91.4142135623731 5.0
  endloop
endfacet
facet normal 0.7933533402912386 -0.6087614290087161 -0.0
  outer loop
    vertex 6.085786437626904 91.4142135623731 0.0
    vertex 5.767949192431122 91.0 5.0
    vertex 5.767949192431122 91.0 0.0
  endloop
endfacet
facet normal 0.7933533402912386 -0.6087614290087161 -0.0
  outer loop
    vertex 5.767949192431122 91.0 5.0
    vertex 6.085786437626904 91.4142135623731 0.0
    vertex 6.085786437626904 91.4142135623731 5.0
  endloop
endfacet
facet normal 0.9238795325112855 -0.38268343236509283 -0.0
  outer loop
    vertex 5.767949192431122 91.0 0.0
    vertex 5.568148347421864 90.51763809020505 5.0
    vertex 5.568148347421864 90.51763809020505 0.0
  endloop
endfacet
facet normal 0.9238795325112855 -0.38268343236509283 -0.0
  outer loop
    vertex 5.568148347421864 90.51763809020505 5.0
    vertex 5.767949192431122 91.0 0.0
    vertex 5.767949192431122 91.0 5.0
  endloop
endfacet
facet normal 0.9914448613738106 -0.13052619222005077 -0.0
  outer loop
    vertex 5.568148347421864 90.51763809020505 0.0
    vertex 5.5 90.0 5.0
    vertex 5.5 90.0 0.0
  endloop
endfacet
facet normal 0.9914448613738106 -0.13052619222005077 -0.0
  outer loop
    vertex 5.5 90.0 5.0
    vertex 5.568148347421864 90.51763809020505 0.0
    vertex 5.568148347421864 90.51763809020505 5.0
  endloop
endfacet
facet normal -0.6087614290087197 0.7933533402912359 -0.0
  outer loop
    vertex 8.5 -6.732050807568876 5.0
    vertex 8.914213562373094 -6.414213562373095 0.0
    vertex 8.5 -6.732050807568876 0.0
  endloop
endfacet
facet normal -0.6087614290087197 0.7933533402912359 -0.0
  outer loop
    vertex 8.914213562373094 -6.414213562373095 0.0
    vertex 8.5 -6.732050807568876 5.0
    vertex 8.914213562373094 -6.414213562373095 5.0
  endloop
endfacet
facet normal -0.7933533402912353 0.6087614290087208 -0.0
  outer loop
    vertex 9.232050807568877 -6.0 5.0
    vertex 8.914213562373094 -6.414213562373095 0.0
    vertex 8.914213562373094 -6.414213562373095 5.0
  endloop
endfacet
facet normal -0.7933533402912353 0.6087614290087208 -0.0
  outer loop
    vertex 8.914213562373094 -6.414213562373095 0.0
    vertex 9.232050807568877 -6.0 5.0
    vertex 9.232050807568877 -6.0 0.0
  endloop
endfacet
facet normal -0.9238795325112871 0.38268343236508895 -0.0
  outer loop
    vertex 9.431851652578136 -5.5176380902050415 5.0
    vertex 9.232050807568877 -6.0 0.0
    vertex 9.232050807568877 -6.0 5.0
  endloop
endfacet
facet normal -0.9238795325112871 0.38268343236508895 -0.0
  outer loop
    vertex 9.232050807568877 -6.0 0.0
    vertex 9.431851652578136 -5.5176380902050415 5.0
    vertex 9.431851652578136 -5.5176380902050415 0.0
  endloop
endfacet
facet normal -0.9914448613738104 0.1305261922200518 -0.0
  outer loop
    vertex 9.5 -5.0 5.0
    vertex 9.431851652578136 -5.5176380902050415 0.0
    vertex 9.431851652578136 -5.5176380902050415 5.0
  endloop
endfacet
facet normal -0.9914448613738104 0.1305261922200518 -0.0
  outer loop
    vertex 9.431851652578136 -5.5176380902050415 0.0
    vertex 9.5 -5.0 5.0
    vertex 9.5 -5.0 0.0
  endloop
endfacet
facet normal -0.9914448613738105 -0.13052619222005143 -0.0
  outer loop
    vertex 9.431851652578136 -4.482361909794958 5.0
    vertex 9.5 -5.0 0.0
    vertex 9.5 -5.0 5.0
  endloop
endfacet
facet normal -0.9914448613738105 -0.13052619222005143 -0.0
  outer loop
    vertex 9.5 -5.0 0.0
    vertex 9.431851652578136 -4.482361909794958 5.0
    vertex 9.431851652578136 -4.482361909794958 0.0
  endloop
endfacet
facet normal -0.9238795325112861 -0.38268343236509184 -0.0
  outer loop
    vertex 9.232050807568877 -3.9999999999999996 5.0
    vertex 9.431851652578136 -4.482361909794958 0.0
    vertex 9.431851652578136 -4.482361909794958 5.0
  endloop
endfacet
facet normal -0.9238795325112861 -0.38268343236509184 -0.0
  outer loop
    vertex 9.431851652578136 -4.482361909794958 0.0
    vertex 9.232050807568877 -3.9999999999999996 5.0
    vertex 9.232050807568877 -3.9999999999999996 0.0
  endloop
endfacet
facet normal -0.7933533402912359 -0.6087614290087197 -0.0
  outer loop
    vertex 8.914213562373094 -3.585786437626905 5.0
    vertex 9.232050807568877 -3.9999999999999996 0.0
    vertex 9.232050807568877 -3.9999999999999996 5.0
  endloop
endfacet
facet normal -0.7933533402912359 -0.6087614290087197 -0.0
  outer loop
    vertex 9.232050807568877 -3.9999999999999996 0.0
    vertex 8.914213562373094 -3.585786437626905 5.0
    vertex 8.914213562373094 -3.585786437626905 0.0
  endloop
endfacet
facet normal -0.60876142900872 -0.7933533402912356 -0.0
  outer loop
    vertex 8.914213562373094 -3.585786437626905 5.0
    vertex 8.499999999999998 -3.2679491924311224 0.0
    vertex 8.914213562373094 -3.585786437626905 0.0
  endloop
endfacet
facet normal -0.60876142900872 -0.7933533402912356 -0.0
  outer loop
    vertex 8.499999999999998 -3.2679491924311224 0.0
    vertex 8.914213562373094 -3.585786437626905 5.0
    vertex 8.499999999999998 -3.2679491924311224 5.0
  endloop
endfacet
facet normal -0.38268343236508845 -0.9238795325112874 -0.0
  outer loop
    vertex 8.499999999999998 -3.2679491924311224 5.0
    vertex 8.01763809020504 -3.068148347421864 0.0
    vertex 8.499999999999998 -3.2679491924311224 0.0
  endloop
endfacet
facet normal -0.38268343236508845 -0.9238795325112874 -0.0
  outer loop
    vertex 8.01763809020504 -3.068148347421864 0.0
    vertex 8.499999999999998 -3.2679491924311224 5.0
    vertex 8.01763809020504 -3.068148347421864 5.0
  endloop
endfacet
facet normal -0.1305261922200515 -0.9914448613738104 -0.0
  outer loop
    vertex 8.01763809020504 -3.068148347421864 5.0
    vertex 7.5 -3.000000000000001 0.0
    vertex 8.01763809020504 -3.068148347421864 0.0
  endloop
endfacet
facet normal -0.1305261922200515 -0.9914448613738104 -0.0
  outer loop
    vertex 7.5 -3.000000000000001 0.0
    vertex 8.01763809020504 -3.068148347421864 5.0
    vertex 7.5 -3.000000000000001 5.0
  endloop
endfacet
facet normal 0.13052619222005213 -0.9914448613738105 -0.0
  outer loop
    vertex 7.5 -3.000000000000001 5.0
    vertex 6.982361909794958 -3.0681483474218645 0.0
    vertex 7.5 -3.000000000000001 0.0
  endloop
endfacet
facet normal 0.13052619222005213 -0.9914448613738105 -0.0
  outer loop
    vertex 6.982361909794958 -3.0681483474218645 0.0
    vertex 7.5 -3.000000000000001 5.0
    vertex 6.982361909794958 -3.0681483474218645 5.0
  endloop
endfacet
facet normal 0.38268343236508956 -0.9238795325112868 -0.0
  outer loop
    vertex 6.982361909794958 -3.0681483474218645 5.0
    vertex 6.499999999999999 -3.2679491924311237 0.0
    vertex 6.982361909794958 -3.0681483474218645 0.0
  endloop
endfacet
facet normal 0.38268343236508956 -0.9238795325112868 -0.0
  outer loop
    vertex 6.499999999999999 -3.2679491924311237 0.0
    vertex 6.982361909794958 -3.0681483474218645 5.0
    vertex 6.499999999999999 -3.2679491924311237 5.0
  endloop
endfacet
facet normal 0.608761429008722 -0.7933533402912342 -0.0
  outer loop
    vertex 6.499999999999999 -3.2679491924311237 5.0
    vertex 6.085786437626905 -3.5857864376269064 0.0
    vertex 6.499999999999999 -3.2679491924311237 0.0
  endloop
endfacet
facet normal 0.608761429008722 -0.7933533402912342 -0.0
  outer loop
    vertex 6.085786437626905 -3.5857864376269064 0.0
    vertex 6.499999999999999 -3.2679491924311237 5.0
    vertex 6.085786437626905 -3.5857864376269064 5.0
  endloop
endfacet
facet normal 0.7933533402912354 -0.6087614290087205 -0.0
  outer loop
    vertex 6.085786437626905 -3.5857864376269064 0.0
    vertex 5.767949192431123 -4.000000000000001 5.0
    vertex 5.767949192431123 -4.000000000000001 0.0
  endloop
endfacet
facet normal 0.7933533402912354 -0.6087614290087205 -0.0
  outer loop
    vertex 5.767949192431123 -4.000000000000001 5.0
    vertex 6.085786437626905 -3.5857864376269064 0.0
    vertex 6.085786437626905 -3.5857864376269064 5.0
  endloop
endfacet
facet normal 0.9238795325112871 -0.38268343236508895 -0.0
  outer loop
    vertex 5.767949192431123 -4.000000000000001 0.0
    vertex 5.5681483474218645 -4.482361909794959 5.0
    vertex 5.5681483474218645 -4.482361909794959 0.0
  endloop
endfacet
facet normal 0.9238795325112871 -0.38268343236508895 -0.0
  outer loop
    vertex 5.5681483474218645 -4.482361909794959 5.0
    vertex 5.767949192431123 -4.000000000000001 0.0
    vertex 5.767949192431123 -4.000000000000001 5.0
  endloop
endfacet
facet normal 0.9914448613738105 -0.130526192220052 -0.0
  outer loop
    vertex 5.5681483474218645 -4.482361909794959 0.0
    vertex 5.500000000000001 -5.0 5.0
    vertex 5.500000000000001 -5.0 0.0
  endloop
endfacet
facet normal 0.9914448613738105 -0.130526192220052 -0.0
  outer loop
    vertex 5.500000000000001 -5.0 5.0
    vertex 5.5681483474218645 -4.482361909794959 0.0
    vertex 5.5681483474218645 -4.482361909794959 5.0
  endloop
endfacet
facet normal 0.9914448613738104 0.13052619222005163 0.0
  outer loop
    vertex 5.500000000000001 -5.0 0.0
    vertex 5.5681483474218645 -5.517638090205042 5.0
    vertex 5.5681483474218645 -5.517638090205042 0.0
  endloop
endfacet
facet normal 0.9914448613738104 0.13052619222005163 0.0
  outer loop
    vertex 5.5681483474218645 -5.517638090205042 5.0
    vertex 5.500000000000001 -5.0 0.0
    vertex 5.500000000000001 -5.0 5.0
  endloop
endfacet
facet normal 0.9238795325112867 0.3826834323650902 0.0
  outer loop
    vertex 5.5681483474218645 -5.517638090205042 0.0
    vertex 5.767949192431124 -6.0 5.0
    vertex 5.767949192431124 -6.0 0.0
  endloop
endfacet
facet normal 0.9238795325112867 0.3826834323650902 0.0
  outer loop
    vertex 5.767949192431124 -6.0 5.0
    vertex 5.5681483474218645 -5.517638090205042 0.0
    vertex 5.5681483474218645 -5.517638090205042 5.0
  endloop
endfacet
facet normal 0.7933533402912354 0.6087614290087205 0.0
  outer loop
    vertex 5.767949192431124 -6.0 0.0
    vertex 6.085786437626906 -6.414213562373095 5.0
    vertex 6.085786437626906 -6.414213562373095 0.0
  endloop
endfacet
facet normal 0.7933533402912354 0.6087614290087205 0.0
  outer loop
    vertex 6.085786437626906 -6.414213562373095 5.0
    vertex 5.767949192431124 -6.0 0.0
    vertex 5.767949192431124 -6.0 5.0
  endloop
endfacet
facet normal 0.6087614290087213 0.7933533402912347 0.0
  outer loop
    vertex 6.085786437626906 -6.414213562373095 5.0
    vertex 6.500000000000001 -6.732050807568878 0.0
    vertex 6.085786437626906 -6.414213562373095 0.0
  endloop
endfacet
facet normal 0.6087614290087213 0.7933533402912347 0.0
  outer loop
    vertex 6.500000000000001 -6.732050807568878 0.0
    vertex 6.085786437626906 -6.414213562373095 5.0
    vertex 6.500000000000001 -6.732050807568878 5.0
  endloop
endfacet
facet normal 0.3826834323650867 0.9238795325112881 0.0
  outer loop
    vertex 6.500000000000001 -6.732050807568878 5.0
    vertex 6.982361909794959 -6.931851652578135 0.0
    vertex 6.500000000000001 -6.732050807568878 0.0
  endloop
endfacet
facet normal 0.3826834323650867 0.9238795325112881 0.0
  outer loop
    vertex 6.982361909794959 -6.931851652578135 0.0
    vertex 6.500000000000001 -6.732050807568878 5.0
    vertex 6.982361909794959 -6.931851652578135 5.0
  endloop
endfacet
facet normal 0.1305261922200518 0.9914448613738104 0.0
  outer loop
    vertex 6.982361909794959 -6.931851652578135 5.0
    vertex 7.5 -6.999999999999998 0.0
    vertex 6.982361909794959 -6.931851652578135 0.0
  endloop
endfacet
facet normal 0.1305261922200518 0.9914448613738104 0.0
  outer loop
    vertex 7.5 -6.999999999999998 0.0
    vertex 6.982361909794959 -6.931851652578135 5.0
    vertex 7.5 -6.999999999999998 5.0
  endloop
endfacet
facet normal -0.1305261922200518 0.9914448613738104 -0.0
  outer loop
    vertex 7.5 -6.999999999999998 5.0
    vertex 8.017638090205041 -6.931851652578135 0.0
    vertex 7.5 -6.999999999999998 0.0
  endloop
endfacet
facet normal -0.1305261922200518 0.9914448613738104 -0.0
  outer loop
    vertex 8.017638090205041 -6.931851652578135 0.0
    vertex 7.5 -6.999999999999998 5.0
    vertex 8.017638090205041 -6.931851652578135 5.0
  endloop
endfacet
facet normal -0.38268343236508895 0.9238795325112871 -0.0
  outer loop
    vertex 8.017638090205041 -6.931851652578135 5.0
    vertex 8.5 -6.732050807568876 0.0
    vertex 8.017638090205041 -6.931851652578135 0.0
  endloop
endfacet
facet normal -0.38268343236508895 0.9238795325112871 -0.0
  outer loop
    vertex 8.5 -6.732050807568876 0.0
    vertex 8.017638090205041 -6.931851652578135 5.0
    vertex 8.5 -6.732050807568876 5.0
  endloop
endfacet
facet normal 0.0 0.0 1.0
  outer loop
    vertex 5.664740930050774 7.008243814305211 60.0
    vertex 5.664740930050773 7.99175618569479 60.0
    vertex 5.600000000000003 7.5 60.0
  endloop
endfacet
facet normal 0.0 0.0 1.0
  outer loop
    vertex 5.664740930050773 7.99175618569479 60.0
    vertex 5.664740930050774 7.008243814305211 60.0
    vertex 5.854551732809569 8.45 60.0
  endloop
endfacet
facet normal 0.0 0.0 1.0
  outer loop
    vertex 5.854551732809569 8.45 60.0
    vertex 5.664740930050774 7.008243814305211 60.0
    vertex 5.854551732809569 6.550000000000001 60.0
  endloop
endfacet
facet normal 0.0 0.0 1.0
  outer loop
    vertex 5.854551732809569 8.45 60.0
    vertex 5.854551732809569 6.550000000000001 60.0
    vertex 6.156497115745563 8.843502884254441 60.0
  endloop
endfacet
facet normal 0.0 0.0 1.0
  outer loop
    vertex 6.156497115745563 8.843502884254441 60.0
    vertex 5.854551732809569 6.550000000000001 60.0
    vertex 6.156497115745563 6.156497115745561 60.0
  endloop
endfacet
facet normal 0.0 0.0 1.0
  outer loop
    vertex 6.156497115745563 8.843502884254441 60.0
    vertex 6.156497115745563 6.156497115745561 60.0
    vertex 6.550000000000003 5.854551732809567 60.0
  endloop
endfacet
facet normal 0.0 0.0 1.0
  outer loop
    vertex 6.156497115745563 8.843502884254441 60.0
    vertex 6.550000000000003 5.854551732809567 60.0
    vertex 6.5500000000000025 9.145448267190433 60.0
  endloop
endfacet
facet normal 0.0 0.0 1.0
  outer loop
    vertex 6.5500000000000025 9.145448267190433 60.0
    vertex 6.550000000000003 5.854551732809567 60.0
    vertex 7.008243814305214 9.33525906994923 60.0
  endloop
endfacet
facet normal 0.0 0.0 1.0
  outer loop
    vertex 7.008243814305214 9.33525906994923 60.0
    vertex 6.550000000000003 5.854551732809567 60.0
    vertex 7.008243814305214 5.664740930050771 60.0
  endloop
endfacet
facet normal 0.0 0.0 1.0
  outer loop
    vertex 7.008243814305214 9.33525906994923 60.0
    vertex 7.008243814305214 5.664740930050771 60.0
    vertex 7.5000000000000036 5.6000000000000005 60.0
  endloop
endfacet
facet normal 0.0 0.0 1.0
  outer loop
    vertex 7.008243814305214 9.33525906994923 60.0
    vertex 7.5000000000000036 5.6000000000000005 60.0
    vertex 7.5000000000000036 9.4 60.0
  endloop
endfacet
facet normal 0.0 0.0 1.0
  outer loop
    vertex 7.5000000000000036 9.4 60.0
    vertex 7.5000000000000036 5.6000000000000005 60.0
    vertex 7.991756185694794 5.664740930050771 60.0
  endloop
endfacet
facet normal 0.0 0.0 1.0
  outer loop
    vertex 7.5000000000000036 9.4 60.0
    vertex 7.991756185694794 5.664740930050771 60.0
    vertex 7.9917561856947925 9.335259069949231 60.0
  endloop
endfacet
facet normal 0.0 0.0 1.0
  outer loop
    vertex 7.9917561856947925 9.335259069949231 60.0
    vertex 7.991756185694794 5.664740930050771 60.0
    vertex 8.450000000000003 9.145448267190435 60.0
  endloop
endfacet
facet normal 0.0 0.0 1.0
  outer loop
    vertex 8.450000000000003 9.145448267190435 60.0
    vertex 7.991756185694794 5.664740930050771 60.0
    vertex 8.450000000000005 5.8545517328095675 60.0
  endloop
endfacet
facet normal 0.0 0.0 1.0
  outer loop
    vertex 8.450000000000003 9.145448267190435 60.0
    vertex 8.450000000000005 5.8545517328095675 60.0
    vertex 8.843502884254443 8.843502884254441 60.0
  endloop
endfacet
facet normal 0.0 0.0 1.0
  outer loop
    vertex 8.843502884254443 8.843502884254441 60.0
    vertex 8.450000000000005 5.8545517328095675 60.0
    vertex 8.843502884254445 6.156497115745561 60.0
  endloop
endfacet
facet normal 0.0 0.0 1.0
  outer loop
    vertex 8.843502884254443 8.843502884254441 60.0
    vertex 8.843502884254445 6.156497115745561 60.0
    vertex 9.145448267190435 8.450000000000001 60.0
  endloop
endfacet
facet normal 0.0 0.0 1.0
  outer loop
    vertex 9.145448267190435 8.450000000000001 60.0
    vertex 8.843502884254445 6.156497115745561 60.0
    vertex 9.145448267190437 6.5500000000000025 60.0
  endloop
endfacet
facet normal 0.0 0.0 1.0
  outer loop
    vertex 9.145448267190435 8.450000000000001 60.0
    vertex 9.145448267190437 6.5500000000000025 60.0
    vertex 9.335259069949233 7.991756185694791 60.0
  endloop
endfacet
facet normal 0.0 0.0 1.0
  outer loop
    vertex 9.335259069949233 7.991756185694791 60.0
    vertex 9.145448267190437 6.5500000000000025 60.0
    vertex 9.335259069949235 7.008243814305211 60.0
  endloop
endfacet
facet normal 0.0 0.0 1.0
  outer loop
    vertex 9.335259069949233 7.991756185694791 60.0
    vertex 9.335259069949235 7.008243814305211 60.0
    vertex 9.400000000000002 7.5 60.0
  endloop
endfacet
facet normal 0.1305261922200512 0.9914448613738105 0.0
  outer loop
    vertex 7.008243814305214 5.664740930050771 80.0
    vertex 7.5000000000000036 5.6000000000000005 60.0
    vertex 7.008243814305214 5.664740930050771 60.0
  endloop
endfacet
facet normal 0.1305261922200512 0.9914448613738105 0.0
  outer loop
    vertex 7.5000000000000036 5.6000000000000005 60.0
    vertex 7.008243814305214 5.664740930050771 80.0
    vertex 7.5000000000000036 5.6000000000000005 80.0
  endloop
endfacet
facet normal -0.13052619222005224 0.9914448613738104 -0.0
  outer loop
    vertex 7.5000000000000036 5.6000000000000005 80.0
    vertex 7.991756185694794 5.664740930050771 60.0
    vertex 7.5000000000000036 5.6000000000000005 60.0
  endloop
endfacet
facet normal -0.13052619222005224 0.9914448613738104 -0.0
  outer loop
    vertex 7.991756185694794 5.664740930050771 60.0
    vertex 7.5000000000000036 5.6000000000000005 80.0
    vertex 7.991756185694794 5.664740930050771 80.0
  endloop
endfacet
facet normal -0.38268343236509034 0.9238795325112865 -0.0
  outer loop
    vertex 7.991756185694794 5.664740930050771 80.0
    vertex 8.450000000000005 5.8545517328095675 60.0
    vertex 7.991756185694794 5.664740930050771 60.0
  endloop
endfacet
facet normal -0.38268343236509034 0.9238795325112865 -0.0
  outer loop
    vertex 8.450000000000005 5.8545517328095675 60.0
    vertex 7.991756185694794 5.664740930050771 80.0
    vertex 8.450000000000005 5.8545517328095675 80.0
  endloop
endfacet
facet normal -0.6087614290087202 0.7933533402912357 -0.0
  outer loop
    vertex 8.450000000000005 5.8545517328095675 80.0
    vertex 8.843502884254445 6.156497115745561 60.0
    vertex 8.450000000000005 5.8545517328095675 60.0
  endloop
endfacet
facet normal -0.6087614290087202 0.7933533402912357 -0.0
  outer loop
    vertex 8.843502884254445 6.156497115745561 60.0
    vertex 8.450000000000005 5.8545517328095675 80.0
    vertex 8.843502884254445 6.156497115745561 80.0
  endloop
endfacet
facet normal -0.7933533402912367 0.6087614290087188 -0.0
  outer loop
    vertex 9.145448267190437 6.5500000000000025 80.0
    vertex 8.843502884254445 6.156497115745561 60.0
    vertex 8.843502884254445 6.156497115745561 80.0
  endloop
endfacet
facet normal -0.7933533402912367 0.6087614290087188 -0.0
  outer loop
    vertex 8.843502884254445 6.156497115745561 60.0
    vertex 9.145448267190437 6.5500000000000025 80.0
    vertex 9.145448267190437 6.5500000000000025 60.0
  endloop
endfacet
facet normal -0.9238795325112862 0.38268343236509134 -0.0
  outer loop
    vertex 9.335259069949235 7.008243814305211 80.0
    vertex 9.145448267190437 6.5500000000000025 60.0
    vertex 9.145448267190437 6.5500000000000025 80.0
  endloop
endfacet
facet normal -0.9238795325112862 0.38268343236509134 -0.0
  outer loop
    vertex 9.145448267190437 6.5500000000000025 60.0
    vertex 9.335259069949235 7.008243814305211 80.0
    vertex 9.335259069949235 7.008243814305211 60.0
  endloop
endfacet
facet normal -0.9914448613738109 0.13052619222004844 -0.0
  outer loop
    vertex 9.400000000000002 7.5 80.0
    vertex 9.335259069949235 7.008243814305211 60.0
    vertex 9.335259069949235 7.008243814305211 80.0
  endloop
endfacet
facet normal -0.9914448613738109 0.13052619222004844 -0.0
  outer loop
    vertex 9.335259069949235 7.008243814305211 60.0
    vertex 9.400000000000002 7.5 80.0
    vertex 9.400000000000002 7.5 60.0
  endloop
endfacet
facet normal -0.9914448613738106 -0.13052619222005085 -0.0
  outer loop
    vertex 9.335259069949233 7.991756185694791 80.0
    vertex 9.400000000000002 7.5 60.0
    vertex 9.400000000000002 7.5 80.0
  endloop
endfacet
facet normal -0.9914448613738106 -0.13052619222005085 -0.0
  outer loop
    vertex 9.400000000000002 7.5 60.0
    vertex 9.335259069949233 7.991756185694791 80.0
    vertex 9.335259069949233 7.991756185694791 60.0
  endloop
endfacet
facet normal -0.9238795325112865 -0.38268343236509034 -0.0
  outer loop
    vertex 9.145448267190435 8.450000000000001 80.0
    vertex 9.335259069949233 7.991756185694791 60.0
    vertex 9.335259069949233 7.991756185694791 80.0
  endloop
endfacet
facet normal -0.9238795325112865 -0.38268343236509034 -0.0
  outer loop
    vertex 9.335259069949233 7.991756185694791 60.0
    vertex 9.145448267190435 8.450000000000001 80.0
    vertex 9.145448267190435 8.450000000000001 60.0
  endloop
endfacet
facet normal -0.7933533402912357 -0.6087614290087202 -0.0
  outer loop
    vertex 8.843502884254443 8.843502884254441 80.0
    vertex 9.145448267190435 8.450000000000001 60.0
    vertex 9.145448267190435 8.450000000000001 80.0
  endloop
endfacet
facet normal -0.7933533402912357 -0.6087614290087202 -0.0
  outer loop
    vertex 9.145448267190435 8.450000000000001 60.0
    vertex 8.843502884254443 8.843502884254441 80.0
    vertex 8.843502884254443 8.843502884254441 60.0
  endloop
endfacet
facet normal -0.6087614290087202 -0.7933533402912357 -0.0
  outer loop
    vertex 8.843502884254443 8.843502884254441 80.0
    vertex 8.450000000000003 9.145448267190435 60.0
    vertex 8.843502884254443 8.843502884254441 60.0
  endloop
endfacet
facet normal -0.6087614290087202 -0.7933533402912357 -0.0
  outer loop
    vertex 8.450000000000003 9.145448267190435 60.0
    vertex 8.843502884254443 8.843502884254441 80.0
    vertex 8.450000000000003 9.145448267190435 80.0
  endloop
endfacet
facet normal -0.38268343236509034 -0.9238795325112865 -0.0
  outer loop
    vertex 8.450000000000003 9.145448267190435 80.0
    vertex 7.9917561856947925 9.335259069949231 60.0
    vertex 8.450000000000003 9.145448267190435 60.0
  endloop
endfacet
facet normal -0.38268343236509034 -0.9238795325112865 -0.0
  outer loop
    vertex 7.9917561856947925 9.335259069949231 60.0
    vertex 8.450000000000003 9.145448267190435 80.0
    vertex 7.9917561856947925 9.335259069949231 80.0
  endloop
endfacet
facet normal -0.13052619222004844 -0.9914448613738109 -0.0
  outer loop
    vertex 7.9917561856947925 9.335259069949231 80.0
    vertex 7.5000000000000036 9.4 60.0
    vertex 7.9917561856947925 9.335259069949231 60.0
  endloop
endfacet
facet normal -0.13052619222004844 -0.9914448613738109 -0.0
  outer loop
    vertex 7.5000000000000036 9.4 60.0
    vertex 7.9917561856947925 9.335259069949231 80.0
    vertex 7.5000000000000036 9.4 80.0
  endloop
endfacet
facet normal 0.1305261922200512 -0.9914448613738105 -0.0
  outer loop
    vertex 7.5000000000000036 9.4 80.0
    vertex 7.008243814305214 9.33525906994923 60.0
    vertex 7.5000000000000036 9.4 60.0
  endloop
endfacet
facet normal 0.1305261922200512 -0.9914448613738105 -0.0
  outer loop
    vertex 7.008243814305214 9.33525906994923 60.0
    vertex 7.5000000000000036 9.4 80.0
    vertex 7.008243814305214 9.33525906994923 80.0
  endloop
endfacet
facet normal 0.38268343236508934 -0.923879532511287 -0.0
  outer loop
    vertex 7.008243814305214 9.33525906994923 80.0
    vertex 6.5500000000000025 9.145448267190433 60.0
    vertex 7.008243814305214 9.33525906994923 60.0
  endloop
endfacet
facet normal 0.38268343236508934 -0.923879532511287 -0.0
  outer loop
    vertex 6.5500000000000025 9.145448267190433 60.0
    vertex 7.008243814305214 9.33525906994923 80.0
    vertex 6.5500000000000025 9.145448267190433 80.0
  endloop
endfacet
facet normal 0.6087614290087215 -0.7933533402912345 -0.0
  outer loop
    vertex 6.5500000000000025 9.145448267190433 80.0
    vertex 6.156497115745563 8.843502884254441 60.0
    vertex 6.5500000000000025 9.145448267190433 60.0
  endloop
endfacet
facet normal 0.6087614290087215 -0.7933533402912345 -0.0
  outer loop
    vertex 6.156497115745563 8.843502884254441 60.0
    vertex 6.5500000000000025 9.145448267190433 80.0
    vertex 6.156497115745563 8.843502884254441 80.0
  endloop
endfacet
facet normal 0.7933533402912343 -0.608761429008722 -0.0
  outer loop
    vertex 6.156497115745563 8.843502884254441 60.0
    vertex 5.854551732809569 8.45 80.0
    vertex 5.854551732809569 8.45 60.0
  endloop
endfacet
facet normal 0.7933533402912343 -0.608761429008722 -0.0
  outer loop
    vertex 5.854551732809569 8.45 80.0
    vertex 6.156497115745563 8.843502884254441 60.0
    vertex 6.156497115745563 8.843502884254441 80.0
  endloop
endfacet
facet normal 0.9238795325112871 -0.3826834323650891 -0.0
  outer loop
    vertex 5.854551732809569 8.45 60.0
    vertex 5.664740930050773 7.99175618569479 80.0
    vertex 5.664740930050773 7.99175618569479 60.0
  endloop
endfacet
facet normal 0.9238795325112871 -0.3826834323650891 -0.0
  outer loop
    vertex 5.664740930050773 7.99175618569479 80.0
    vertex 5.854551732809569 8.45 60.0
    vertex 5.854551732809569 8.45 80.0
  endloop
endfacet
facet normal 0.9914448613738105 -0.1305261922200512 -0.0
  outer loop
    vertex 5.664740930050773 7.99175618569479 60.0
    vertex 5.600000000000003 7.5 80.0
    vertex 5.600000000000003 7.5 60.0
  endloop
endfacet
facet normal 0.9914448613738105 -0.1305261922200512 -0.0
  outer loop
    vertex 5.600000000000003 7.5 80.0
    vertex 5.664740930050773 7.99175618569479 60.0
    vertex 5.664740930050773 7.99175618569479 80.0
  endloop
endfacet
facet normal 0.9914448613738104 0.13052619222005263 0.0
  outer loop
    vertex 5.600000000000003 7.5 60.0
    vertex 5.664740930050774 7.008243814305211 80.0
    vertex 5.664740930050774 7.008243814305211 60.0
  endloop
endfacet
facet normal 0.9914448613738104 0.13052619222005263 0.0
  outer loop
    vertex 5.664740930050774 7.008243814305211 80.0
    vertex 5.600000000000003 7.5 60.0
    vertex 5.600000000000003 7.5 80.0
  endloop
endfacet
facet normal 0.9238795325112871 0.3826834323650891 0.0
  outer loop
    vertex 5.664740930050774 7.008243814305211 60.0
    vertex 5.854551732809569 6.550000000000001 80.0
    vertex 5.854551732809569 6.550000000000001 60.0
  endloop
endfacet
facet normal 0.9238795325112871 0.3826834323650891 0.0
  outer loop
    vertex 5.854551732809569 6.550000000000001 80.0
    vertex 5.664740930050774 7.008243814305211 60.0
    vertex 5.664740930050774 7.008243814305211 80.0
  endloop
endfacet
facet normal 0.7933533402912349 0.6087614290087211 0.0
  outer loop
    vertex 5.854551732809569 6.550000000000001 60.0
    vertex 6.156497115745563 6.156497115745561 80.0
    vertex 6.156497115745563 6.156497115745561 60.0
  endloop
endfacet
facet normal 0.7933533402912349 0.6087614290087211 0.0
  outer loop
    vertex 6.156497115745563 6.156497115745561 80.0
    vertex 5.854551732809569 6.550000000000001 60.0
    vertex 5.854551732809569 6.550000000000001 80.0
  endloop
endfacet
facet normal 0.6087614290087211 0.7933533402912349 0.0
  outer loop
    vertex 6.156497115745563 6.156497115745561 80.0
    vertex 6.550000000000003 5.854551732809567 60.0
    vertex 6.156497115745563 6.156497115745561 60.0
  endloop
endfacet
facet normal 0.6087614290087211 0.7933533402912349 0.0
  outer loop
    vertex 6.550000000000003 5.854551732809567 60.0
    vertex 6.156497115745563 6.156497115745561 80.0
    vertex 6.550000000000003 5.854551732809567 80.0
  endloop
endfacet
facet normal 0.38268343236509034 0.9238795325112865 0.0
  outer loop
    vertex 6.550000000000003 5.854551732809567 80.0
    vertex 7.008243814305214 5.664740930050771 60.0
    vertex 6.550000000000003 5.854551732809567 60.0
  endloop
endfacet
facet normal 0.38268343236509034 0.9238795325112865 0.0
  outer loop
    vertex 7.008243814305214 5.664740930050771 60.0
    vertex 6.550000000000003 5.854551732809567 80.0
    vertex 7.008243814305214 5.664740930050771 80.0
  endloop
endfacet
facet normal 0.0 0.0 1.0
  outer loop
    vertex 5.6647409300507725 77.00824381430522 60.0
    vertex 5.6647409300507725 77.9917561856948 60.0
    vertex 5.600000000000002 77.5 60.0
  endloop
endfacet
facet normal 0.0 0.0 1.0
  outer loop
    vertex 5.6647409300507725 77.9917561856948 60.0
    vertex 5.6647409300507725 77.00824381430522 60.0
    vertex 5.854551732809569 76.55000000000001 60.0
  endloop
endfacet
facet normal 0.0 0.0 1.0
  outer loop
    vertex 5.6647409300507725 77.9917561856948 60.0
    vertex 5.854551732809569 76.55000000000001 60.0
    vertex 5.854551732809568 78.45 60.0
  endloop
endfacet
facet normal 0.0 0.0 1.0
  outer loop
    vertex 5.854551732809568 78.45 60.0
    vertex 5.854551732809569 76.55000000000001 60.0
    vertex 6.1564971157455615 78.84350288425445 60.0
  endloop
endfacet
facet normal 0.0 0.0 1.0
  outer loop
    vertex 6.1564971157455615 78.84350288425445 60.0
    vertex 5.854551732809569 76.55000000000001 60.0
    vertex 6.1564971157455615 76.15649711574557 60.0
  endloop
endfacet
facet normal 0.0 0.0 1.0
  outer loop
    vertex 6.1564971157455615 78.84350288425445 60.0
    vertex 6.1564971157455615 76.15649711574557 60.0
    vertex 6.550000000000001 75.85455173280957 60.0
  endloop
endfacet
facet normal 0.0 0.0 1.0
  outer loop
    vertex 6.1564971157455615 78.84350288425445 60.0
    vertex 6.550000000000001 75.85455173280957 60.0
    vertex 6.549999999999999 79.14544826719043 60.0
  endloop
endfacet
facet normal 0.0 0.0 1.0
  outer loop
    vertex 6.549999999999999 79.14544826719043 60.0
    vertex 6.550000000000001 75.85455173280957 60.0
    vertex 7.008243814305209 79.33525906994923 60.0
  endloop
endfacet
facet normal 0.0 0.0 1.0
  outer loop
    vertex 7.008243814305209 79.33525906994923 60.0
    vertex 6.550000000000001 75.85455173280957 60.0
    vertex 7.008243814305211 75.66474093005078 60.0
  endloop
endfacet
facet normal 0.0 0.0 1.0
  outer loop
    vertex 7.008243814305209 79.33525906994923 60.0
    vertex 7.008243814305211 75.66474093005078 60.0
    vertex 7.499999999999999 79.4 60.0
  endloop
endfacet
facet normal 0.0 0.0 1.0
  outer loop
    vertex 7.499999999999999 79.4 60.0
    vertex 7.008243814305211 75.66474093005078 60.0
    vertex 7.499999999999999 75.60000000000001 60.0
  endloop
endfacet
facet normal 0.0 0.0 1.0
  outer loop
    vertex 7.499999999999999 79.4 60.0
    vertex 7.499999999999999 75.60000000000001 60.0
    vertex 7.99175618569479 75.66474093005078 60.0
  endloop
endfacet
facet normal 0.0 0.0 1.0
  outer loop
    vertex 7.499999999999999 79.4 60.0
    vertex 7.99175618569479 75.66474093005078 60.0
    vertex 7.991756185694787 79.33525906994923 60.0
  endloop
endfacet
facet normal 0.0 0.0 1.0
  outer loop
    vertex 7.991756185694787 79.33525906994923 60.0
    vertex 7.99175618569479 75.66474093005078 60.0
    vertex 8.449999999999998 79.14544826719043 60.0
  endloop
endfacet
facet normal 0.0 0.0 1.0
  outer loop
    vertex 8.449999999999998 79.14544826719043 60.0
    vertex 7.99175618569479 75.66474093005078 60.0
    vertex 8.45 75.85455173280957 60.0
  endloop
endfacet
facet normal 0.0 0.0 1.0
  outer loop
    vertex 8.449999999999998 79.14544826719043 60.0
    vertex 8.45 75.85455173280957 60.0
    vertex 8.843502884254436 78.84350288425445 60.0
  endloop
endfacet
facet normal 0.0 0.0 1.0
  outer loop
    vertex 8.843502884254436 78.84350288425445 60.0
    vertex 8.45 75.85455173280957 60.0
    vertex 8.843502884254438 76.15649711574557 60.0
  endloop
endfacet
facet normal 0.0 0.0 1.0
  outer loop
    vertex 8.843502884254436 78.84350288425445 60.0
    vertex 8.843502884254438 76.15649711574557 60.0
    vertex 9.145448267190428 78.45 60.0
  endloop
endfacet
facet normal 0.0 0.0 1.0
  outer loop
    vertex 9.145448267190428 78.45 60.0
    vertex 8.843502884254438 76.15649711574557 60.0
    vertex 9.14544826719043 76.55000000000001 60.0
  endloop
endfacet
facet normal 0.0 0.0 1.0
  outer loop
    vertex 9.145448267190428 78.45 60.0
    vertex 9.14544826719043 76.55000000000001 60.0
    vertex 9.335259069949226 77.9917561856948 60.0
  endloop
endfacet
facet normal 0.0 0.0 1.0
  outer loop
    vertex 9.335259069949226 77.9917561856948 60.0
    vertex 9.14544826719043 76.55000000000001 60.0
    vertex 9.335259069949226 77.00824381430522 60.0
  endloop
endfacet
facet normal 0.0 0.0 1.0
  outer loop
    vertex 9.335259069949226 77.9917561856948 60.0
    vertex 9.335259069949226 77.00824381430522 60.0
    vertex 9.399999999999995 77.5 60.0
  endloop
endfacet
facet normal 0.3826834323650781 0.9238795325112915 0.0
  outer loop
    vertex 6.550000000000001 75.85455173280957 80.0
    vertex 7.008243814305211 75.66474093005078 60.0
    vertex 6.550000000000001 75.85455173280957 60.0
  endloop
endfacet
facet normal 0.3826834323650781 0.9238795325112915 0.0
  outer loop
    vertex 7.008243814305211 75.66474093005078 60.0
    vertex 6.550000000000001 75.85455173280957 80.0
    vertex 7.008243814305211 75.66474093005078 80.0
  endloop
endfacet
facet normal 0.13052619222005998 0.9914448613738095 0.0
  outer loop
    vertex 7.008243814305211 75.66474093005078 80.0
    vertex 7.499999999999999 75.60000000000001 60.0
    vertex 7.008243814305211 75.66474093005078 60.0
  endloop
endfacet
facet normal 0.13052619222005998 0.9914448613738095 0.0
  outer loop
    vertex 7.499999999999999 75.60000000000001 60.0
    vertex 7.008243814305211 75.66474093005078 80.0
    vertex 7.499999999999999 75.60000000000001 80.0
  endloop
endfacet
facet normal -0.13052619222005923 0.9914448613738094 -0.0
  outer loop
    vertex 7.499999999999999 75.60000000000001 80.0
    vertex 7.99175618569479 75.66474093005078 60.0
    vertex 7.499999999999999 75.60000000000001 60.0
  endloop
endfacet
facet normal -0.13052619222005923 0.9914448613738094 -0.0
  outer loop
    vertex 7.99175618569479 75.66474093005078 60.0
    vertex 7.499999999999999 75.60000000000001 80.0
    vertex 7.99175618569479 75.66474093005078 80.0
  endloop
endfacet
facet normal -0.38268343236507923 0.9238795325112912 -0.0
  outer loop
    vertex 7.99175618569479 75.66474093005078 80.0
    vertex 8.45 75.85455173280957 60.0
    vertex 7.99175618569479 75.66474093005078 60.0
  endloop
endfacet
facet normal -0.38268343236507923 0.9238795325112912 -0.0
  outer loop
    vertex 8.45 75.85455173280957 60.0
    vertex 7.99175618569479 75.66474093005078 80.0
    vertex 8.45 75.85455173280957 80.0
  endloop
endfacet
facet normal -0.6087614290087198 0.7933533402912359 -0.0
  outer loop
    vertex 8.45 75.85455173280957 80.0
    vertex 8.843502884254438 76.15649711574557 60.0
    vertex 8.45 75.85455173280957 60.0
  endloop
endfacet
facet normal -0.6087614290087198 0.7933533402912359 -0.0
  outer loop
    vertex 8.843502884254438 76.15649711574557 60.0
    vertex 8.45 75.85455173280957 80.0
    vertex 8.843502884254438 76.15649711574557 80.0
  endloop
endfacet
facet normal -0.7933533402912376 0.6087614290087174 -0.0
  outer loop
    vertex 9.14544826719043 76.55000000000001 80.0
    vertex 8.843502884254438 76.15649711574557 60.0
    vertex 8.843502884254438 76.15649711574557 80.0
  endloop
endfacet
facet normal -0.7933533402912376 0.6087614290087174 -0.0
  outer loop
    vertex 8.843502884254438 76.15649711574557 60.0
    vertex 9.14544826719043 76.55000000000001 80.0
    vertex 9.14544826719043 76.55000000000001 60.0
  endloop
endfacet
facet normal -0.9238795325112863 0.3826834323650909 -0.0
  outer loop
    vertex 9.335259069949226 77.00824381430522 80.0
    vertex 9.14544826719043 76.55000000000001 60.0
    vertex 9.14544826719043 76.55000000000001 80.0
  endloop
endfacet
facet normal -0.9238795325112863 0.3826834323650909 -0.0
  outer loop
    vertex 9.14544826719043 76.55000000000001 60.0
    vertex 9.335259069949226 77.00824381430522 80.0
    vertex 9.335259069949226 77.00824381430522 60.0
  endloop
endfacet
facet normal -0.9914448613738107 0.1305261922200505 -0.0
  outer loop
    vertex 9.399999999999995 77.5 80.0
    vertex 9.335259069949226 77.00824381430522 60.0
    vertex 9.335259069949226 77.00824381430522 80.0
  endloop
endfacet
facet normal -0.9914448613738107 0.1305261922200505 -0.0
  outer loop
    vertex 9.335259069949226 77.00824381430522 60.0
    vertex 9.399999999999995 77.5 80.0
    vertex 9.399999999999995 77.5 60.0
  endloop
endfacet
facet normal -0.9914448613738107 -0.1305261922200505 -0.0
  outer loop
    vertex 9.335259069949226 77.9917561856948 80.0
    vertex 9.399999999999995 77.5 60.0
    vertex 9.399999999999995 77.5 80.0
  endloop
endfacet
facet normal -0.9914448613738107 -0.1305261922200505 -0.0
  outer loop
    vertex 9.399999999999995 77.5 60.0
    vertex 9.335259069949226 77.9917561856948 80.0
    vertex 9.335259069949226 77.9917561856948 60.0
  endloop
endfacet
facet normal -0.9238795325112854 -0.38268343236509345 -0.0
  outer loop
    vertex 9.145448267190428 78.45 80.0
    vertex 9.335259069949226 77.9917561856948 60.0
    vertex 9.335259069949226 77.9917561856948 80.0
  endloop
endfacet
facet normal -0.9238795325112854 -0.38268343236509345 -0.0
  outer loop
    vertex 9.335259069949226 77.9917561856948 60.0
    vertex 9.145448267190428 78.45 80.0
    vertex 9.145448267190428 78.45 60.0
  endloop
endfacet
facet normal -0.7933533402912376 -0.6087614290087174 -0.0
  outer loop
    vertex 8.843502884254436 78.84350288425445 80.0
    vertex 9.145448267190428 78.45 60.0
    vertex 9.145448267190428 78.45 80.0
  endloop
endfacet
facet normal -0.7933533402912376 -0.6087614290087174 -0.0
  outer loop
    vertex 9.145448267190428 78.45 60.0
    vertex 8.843502884254436 78.84350288425445 80.0
    vertex 8.843502884254436 78.84350288425445 60.0
  endloop
endfacet
facet normal -0.6087614290087198 -0.7933533402912359 -0.0
  outer loop
    vertex 8.843502884254436 78.84350288425445 80.0
    vertex 8.449999999999998 79.14544826719043 60.0
    vertex 8.843502884254436 78.84350288425445 60.0
  endloop
endfacet
facet normal -0.6087614290087198 -0.7933533402912359 -0.0
  outer loop
    vertex 8.449999999999998 79.14544826719043 60.0
    vertex 8.843502884254436 78.84350288425445 80.0
    vertex 8.449999999999998 79.14544826719043 80.0
  endloop
endfacet
facet normal -0.3826834323650781 -0.9238795325112915 -0.0
  outer loop
    vertex 8.449999999999998 79.14544826719043 80.0
    vertex 7.991756185694787 79.33525906994923 60.0
    vertex 8.449999999999998 79.14544826719043 60.0
  endloop
endfacet
facet normal -0.3826834323650781 -0.9238795325112915 -0.0
  outer loop
    vertex 7.991756185694787 79.33525906994923 60.0
    vertex 8.449999999999998 79.14544826719043 80.0
    vertex 7.991756185694787 79.33525906994923 80.0
  endloop
endfacet
facet normal -0.13052619222005998 -0.9914448613738095 -0.0
  outer loop
    vertex 7.991756185694787 79.33525906994923 80.0
    vertex 7.499999999999999 79.4 60.0
    vertex 7.991756185694787 79.33525906994923 60.0
  endloop
endfacet
facet normal -0.13052619222005998 -0.9914448613738095 -0.0
  outer loop
    vertex 7.499999999999999 79.4 60.0
    vertex 7.991756185694787 79.33525906994923 80.0
    vertex 7.499999999999999 79.4 80.0
  endloop
endfacet
facet normal 0.13052619222005962 -0.9914448613738095 -0.0
  outer loop
    vertex 7.499999999999999 79.4 80.0
    vertex 7.008243814305209 79.33525906994923 60.0
    vertex 7.499999999999999 79.4 60.0
  endloop
endfacet
facet normal 0.13052619222005962 -0.9914448613738095 -0.0
  outer loop
    vertex 7.008243814305209 79.33525906994923 60.0
    vertex 7.499999999999999 79.4 80.0
    vertex 7.008243814305209 79.33525906994923 80.0
  endloop
endfacet
facet normal 0.3826834323650781 -0.9238795325112915 -0.0
  outer loop
    vertex 7.008243814305209 79.33525906994923 80.0
    vertex 6.549999999999999 79.14544826719043 60.0
    vertex 7.008243814305209 79.33525906994923 60.0
  endloop
endfacet
facet normal 0.3826834323650781 -0.9238795325112915 -0.0
  outer loop
    vertex 6.549999999999999 79.14544826719043 60.0
    vertex 7.008243814305209 79.33525906994923 80.0
    vertex 6.549999999999999 79.14544826719043 80.0
  endloop
endfacet
facet normal 0.6087614290087204 -0.7933533402912355 -0.0
  outer loop
    vertex 6.549999999999999 79.14544826719043 80.0
    vertex 6.1564971157455615 78.84350288425445 60.0
    vertex 6.549999999999999 79.14544826719043 60.0
  endloop
endfacet
facet normal 0.6087614290087204 -0.7933533402912355 -0.0
  outer loop
    vertex 6.1564971157455615 78.84350288425445 60.0
    vertex 6.549999999999999 79.14544826719043 80.0
    vertex 6.1564971157455615 78.84350288425445 80.0
  endloop
endfacet
facet normal 0.7933533402912376 -0.6087614290087174 -0.0
  outer loop
    vertex 6.1564971157455615 78.84350288425445 60.0
    vertex 5.854551732809568 78.45 80.0
    vertex 5.854551732809568 78.45 60.0
  endloop
endfacet
facet normal 0.7933533402912376 -0.6087614290087174 -0.0
  outer loop
    vertex 5.854551732809568 78.45 80.0
    vertex 6.1564971157455615 78.84350288425445 60.0
    vertex 6.1564971157455615 78.84350288425445 80.0
  endloop
endfacet
facet normal 0.923879532511286 -0.3826834323650922 -0.0
  outer loop
    vertex 5.854551732809568 78.45 60.0
    vertex 5.6647409300507725 77.9917561856948 80.0
    vertex 5.6647409300507725 77.9917561856948 60.0
  endloop
endfacet
facet normal 0.923879532511286 -0.3826834323650922 -0.0
  outer loop
    vertex 5.6647409300507725 77.9917561856948 80.0
    vertex 5.854551732809568 78.45 60.0
    vertex 5.854551732809568 78.45 80.0
  endloop
endfacet
facet normal 0.9914448613738107 -0.1305261922200505 -0.0
  outer loop
    vertex 5.6647409300507725 77.9917561856948 60.0
    vertex 5.600000000000002 77.5 80.0
    vertex 5.600000000000002 77.5 60.0
  endloop
endfacet
facet normal 0.9914448613738107 -0.1305261922200505 -0.0
  outer loop
    vertex 5.600000000000002 77.5 80.0
    vertex 5.6647409300507725 77.9917561856948 60.0
    vertex 5.6647409300507725 77.9917561856948 80.0
  endloop
endfacet
facet normal 0.9914448613738107 0.1305261922200505 0.0
  outer loop
    vertex 5.600000000000002 77.5 60.0
    vertex 5.6647409300507725 77.00824381430522 80.0
    vertex 5.6647409300507725 77.00824381430522 60.0
  endloop
endfacet
facet normal 0.9914448613738107 0.1305261922200505 0.0
  outer loop
    vertex 5.6647409300507725 77.00824381430522 80.0
    vertex 5.600000000000002 77.5 60.0
    vertex 5.600000000000002 77.5 80.0
  endloop
endfacet
facet normal 0.9238795325112854 0.38268343236509345 0.0
  outer loop
    vertex 5.6647409300507725 77.00824381430522 60.0
    vertex 5.854551732809569 76.55000000000001 80.0
    vertex 5.854551732809569 76.55000000000001 60.0
  endloop
endfacet
facet normal 0.9238795325112854 0.38268343236509345 0.0
  outer loop
    vertex 5.854551732809569 76.55000000000001 80.0
    vertex 5.6647409300507725 77.00824381430522 60.0
    vertex 5.6647409300507725 77.00824381430522 80.0
  endloop
endfacet
facet normal 0.7933533402912384 0.6087614290087165 0.0
  outer loop
    vertex 5.854551732809569 76.55000000000001 60.0
    vertex 6.1564971157455615 76.15649711574557 80.0
    vertex 6.1564971157455615 76.15649711574557 60.0
  endloop
endfacet
facet normal 0.7933533402912384 0.6087614290087165 0.0
  outer loop
    vertex 6.1564971157455615 76.15649711574557 80.0
    vertex 5.854551732809569 76.55000000000001 60.0
    vertex 5.854551732809569 76.55000000000001 80.0
  endloop
endfacet
facet normal 0.608761429008719 0.7933533402912364 0.0
  outer loop
    vertex 6.1564971157455615 76.15649711574557 80.0
    vertex 6.550000000000001 75.85455173280957 60.0
    vertex 6.1564971157455615 76.15649711574557 60.0
  endloop
endfacet
facet normal 0.608761429008719 0.7933533402912364 0.0
  outer loop
    vertex 6.550000000000001 75.85455173280957 60.0
    vertex 6.1564971157455615 76.15649711574557 80.0
    vertex 6.550000000000001 75.85455173280957 80.0
  endloop
endfacet
endsolid Slide-Rail-Supports
