solid Runner2
facet normal -0.8147873082039159 0.5797599868823454 0.0
  outer loop
    vertex 56.835176485139066 74.84427733217058 100.27686299999999
    vertex 55.92113666805228 73.55969740425898 0.0
    vertex 55.92113666805228 73.55969740425898 100.27686299999999
  endloop
endfacet
facet normal -0.8147873082039159 0.5797599868823454 0.0
  outer loop
    vertex 55.92113666805228 73.55969740425898 0.0
    vertex 56.835176485139066 74.84427733217058 100.27686299999999
    vertex 56.835176485139066 74.84427733217058 0.0
  endloop
endfacet
facet normal 0.0005105916031817417 0.9999998696480991 0.0
  outer loop
    vertex 56.835176485139066 74.84427733217058 100.27686299999999
    vertex 67.81722213983575 74.8386699911426 0.0
    vertex 56.835176485139066 74.84427733217058 0.0
  endloop
endfacet
facet normal 0.0005105916031817417 0.9999998696480991 0.0
  outer loop
    vertex 67.81722213983575 74.8386699911426 0.0
    vertex 56.835176485139066 74.84427733217058 100.27686299999999
    vertex 67.81722213983575 74.8386699911426 100.27686299999999
  endloop
endfacet
facet normal 0.8147873082039193 0.5797599868823406 0.0
  outer loop
    vertex 67.81722213983575 74.8386699911426 0.0
    vertex 68.73126195692252 73.55409006323102 100.27686299999999
    vertex 68.73126195692252 73.55409006323102 0.0
  endloop
endfacet
facet normal 0.8147873082039193 0.5797599868823406 0.0
  outer loop
    vertex 68.73126195692252 73.55409006323102 100.27686299999999
    vertex 67.81722213983575 74.8386699911426 0.0
    vertex 67.81722213983575 74.8386699911426 100.27686299999999
  endloop
endfacet
facet normal 0.6703029333692281 0.7420875807589076 0.0
  outer loop
    vertex 68.73126195692252 73.55409006323102 100.27686299999999
    vertex 69.3686551010725 72.97835411869973 0.0
    vertex 68.73126195692252 73.55409006323102 0.0
  endloop
endfacet
facet normal 0.6703029333692281 0.7420875807589076 0.0
  outer loop
    vertex 69.3686551010725 72.97835411869973 0.0
    vertex 68.73126195692252 73.55409006323102 100.27686299999999
    vertex 69.3686551010725 72.97835411869973 100.27686299999999
  endloop
endfacet
facet normal 0.37527072641126225 0.9269152506560477 0.0
  outer loop
    vertex 69.3686551010725 72.97835411869973 100.27686299999999
    vertex 69.89037385508313 72.76713116637332 0.0
    vertex 69.3686551010725 72.97835411869973 0.0
  endloop
endfacet
facet normal 0.37527072641126225 0.9269152506560477 0.0
  outer loop
    vertex 69.89037385508313 72.76713116637332 0.0
    vertex 69.3686551010725 72.97835411869973 100.27686299999999
    vertex 69.89037385508313 72.76713116637332 100.27686299999999
  endloop
endfacet
facet normal 0.8529721535934337 0.5219564207806816 0.0
  outer loop
    vertex 69.89037385508313 72.76713116637332 0.0
    vertex 70.49014857344788 71.78698969703514 100.27686299999999
    vertex 70.49014857344788 71.78698969703514 0.0
  endloop
endfacet
facet normal 0.8529721535934337 0.5219564207806816 0.0
  outer loop
    vertex 70.49014857344788 71.78698969703514 100.27686299999999
    vertex 69.89037385508313 72.76713116637332 0.0
    vertex 69.89037385508313 72.76713116637332 100.27686299999999
  endloop
endfacet
facet normal 1.0 0.0 0.0
  outer loop
    vertex 70.49014857344788 71.78698969703514 0.0
    vertex 70.49014857344788 70.86166385503515 100.27686299999999
    vertex 70.49014857344788 70.86166385503515 0.0
  endloop
endfacet
facet normal 1.0 0.0 0.0
  outer loop
    vertex 70.49014857344788 70.86166385503515 100.27686299999999
    vertex 70.49014857344788 71.78698969703514 0.0
    vertex 70.49014857344788 71.78698969703514 100.27686299999999
  endloop
endfacet
facet normal 0.6312199805451127 -0.7756038525952714 0.0
  outer loop
    vertex 70.49014857344788 70.86166385503515 100.27686299999999
    vertex 69.06995766888745 69.7058510362265 0.0
    vertex 70.49014857344788 70.86166385503515 0.0
  endloop
endfacet
facet normal 0.6312199805451127 -0.7756038525952714 0.0
  outer loop
    vertex 69.06995766888745 69.7058510362265 0.0
    vertex 70.49014857344788 70.86166385503515 100.27686299999999
    vertex 69.06995766888745 69.7058510362265 100.27686299999999
  endloop
endfacet
facet normal 0.8442313338507942 -0.5359789687520483 0.0
  outer loop
    vertex 69.06995766888745 69.7058510362265 0.0
    vertex 68.24217390209031 68.40199205233702 100.27686299999999
    vertex 68.24217390209031 68.40199205233702 0.0
  endloop
endfacet
facet normal 0.8442313338507942 -0.5359789687520483 0.0
  outer loop
    vertex 68.24217390209031 68.40199205233702 100.27686299999999
    vertex 69.06995766888745 69.7058510362265 0.0
    vertex 69.06995766888745 69.7058510362265 100.27686299999999
  endloop
endfacet
facet normal 0.8442313338508224 -0.5359789687520039 0.0
  outer loop
    vertex 68.24217390209031 68.40199205233702 0.0
    vertex 67.75943816070956 67.6416252047492 100.27686299999999
    vertex 67.75943816070956 67.6416252047492 0.0
  endloop
endfacet
facet normal 0.8442313338508224 -0.5359789687520039 0.0
  outer loop
    vertex 67.75943816070956 67.6416252047492 100.27686299999999
    vertex 68.24217390209031 68.40199205233702 0.0
    vertex 68.24217390209031 68.40199205233702 100.27686299999999
  endloop
endfacet
facet normal 1.0 0.0 0.0
  outer loop
    vertex 67.75943816070956 67.6416252047492 0.0
    vertex 67.75943816070956 65.03778747314921 100.27686299999999
    vertex 67.75943816070956 65.03778747314921 0.0
  endloop
endfacet
facet normal 1.0 0.0 0.0
  outer loop
    vertex 67.75943816070956 65.03778747314921 100.27686299999999
    vertex 67.75943816070956 67.6416252047492 0.0
    vertex 67.75943816070956 67.6416252047492 100.27686299999999
  endloop
endfacet
facet normal 0.7377086652938741 0.6751191932913261 0.0
  outer loop
    vertex 67.75943816070956 65.03778747314921 0.0
    vertex 68.90564978640606 63.78531197409759 100.27686299999999
    vertex 68.90564978640606 63.78531197409759 0.0
  endloop
endfacet
facet normal 0.7377086652938741 0.6751191932913261 0.0
  outer loop
    vertex 68.90564978640606 63.78531197409759 100.27686299999999
    vertex 67.75943816070956 65.03778747314921 0.0
    vertex 67.75943816070956 65.03778747314921 100.27686299999999
  endloop
endfacet
facet normal 0.7377086652938752 0.6751191932913247 0.0
  outer loop
    vertex 68.90564978640606 63.78531197409759 0.0
    vertex 70.62698357022951 61.904395447344804 100.27686299999999
    vertex 70.62698357022951 61.904395447344804 0.0
  endloop
endfacet
facet normal 0.7377086652938752 0.6751191932913247 0.0
  outer loop
    vertex 70.62698357022951 61.904395447344804 100.27686299999999
    vertex 68.90564978640606 63.78531197409759 0.0
    vertex 68.90564978640606 63.78531197409759 100.27686299999999
  endloop
endfacet
facet normal 0.7377086652938729 0.6751191932913274 0.0
  outer loop
    vertex 70.62698357022951 61.904395447344804 0.0
    vertex 70.92118039368347 61.58292399738373 100.27686299999999
    vertex 70.92118039368347 61.58292399738373 0.0
  endloop
endfacet
facet normal 0.7377086652938729 0.6751191932913274 0.0
  outer loop
    vertex 70.92118039368347 61.58292399738373 100.27686299999999
    vertex 70.62698357022951 61.904395447344804 0.0
    vertex 70.62698357022951 61.904395447344804 100.27686299999999
  endloop
endfacet
facet normal 1.0 0.0 0.0
  outer loop
    vertex 70.92118039368347 61.58292399738373 0.0
    vertex 70.92118039368347 59.20528356298374 100.27686299999999
    vertex 70.92118039368347 59.20528356298374 0.0
  endloop
endfacet
facet normal 1.0 0.0 0.0
  outer loop
    vertex 70.92118039368347 59.20528356298374 100.27686299999999
    vertex 70.92118039368347 61.58292399738373 0.0
    vertex 70.92118039368347 61.58292399738373 100.27686299999999
  endloop
endfacet
facet normal 0.7496626739989105 -0.6618201230038289 0.0
  outer loop
    vertex 70.92118039368347 59.20528356298374 0.0
    vertex 69.90755813917484 58.0571245038562 100.27686299999999
    vertex 69.90755813917484 58.0571245038562 0.0
  endloop
endfacet
facet normal 0.7496626739989105 -0.6618201230038289 0.0
  outer loop
    vertex 69.90755813917484 58.0571245038562 100.27686299999999
    vertex 70.92118039368347 59.20528356298374 0.0
    vertex 70.92118039368347 59.20528356298374 100.27686299999999
  endloop
endfacet
facet normal -0.0003698110571399929 -0.9999999316198889 -0.0
  outer loop
    vertex 69.90755813917484 58.0571245038562 100.27686299999999
    vertex 54.744840485800005 58.06273184488414 0.0
    vertex 69.90755813917484 58.0571245038562 0.0
  endloop
endfacet
facet normal -0.0003698110571399929 -0.9999999316198889 -0.0
  outer loop
    vertex 54.744840485800005 58.06273184488414 0.0
    vertex 69.90755813917484 58.0571245038562 100.27686299999999
    vertex 54.744840485800005 58.06273184488414 100.27686299999999
  endloop
endfacet
facet normal -0.7496626739988951 -0.6618201230038464 -0.0
  outer loop
    vertex 53.7312182312913 59.2108909040117 100.27686299999999
    vertex 54.744840485800005 58.06273184488414 0.0
    vertex 54.744840485800005 58.06273184488414 100.27686299999999
  endloop
endfacet
facet normal -0.7496626739988951 -0.6618201230038464 -0.0
  outer loop
    vertex 54.744840485800005 58.06273184488414 0.0
    vertex 53.7312182312913 59.2108909040117 100.27686299999999
    vertex 53.7312182312913 59.2108909040117 0.0
  endloop
endfacet
facet normal -1.0 0.0 0.0
  outer loop
    vertex 53.7312182312913 61.588531338411684 100.27686299999999
    vertex 53.7312182312913 59.2108909040117 0.0
    vertex 53.7312182312913 59.2108909040117 100.27686299999999
  endloop
endfacet
facet normal -1.0 0.0 0.0
  outer loop
    vertex 53.7312182312913 59.2108909040117 0.0
    vertex 53.7312182312913 61.588531338411684 100.27686299999999
    vertex 53.7312182312913 61.588531338411684 0.0
  endloop
endfacet
facet normal -0.7377086652938729 0.6751191932913274 0.0
  outer loop
    vertex 54.02541505474525 61.91000278837276 100.27686299999999
    vertex 53.7312182312913 61.588531338411684 0.0
    vertex 53.7312182312913 61.588531338411684 100.27686299999999
  endloop
endfacet
facet normal -0.7377086652938729 0.6751191932913274 0.0
  outer loop
    vertex 53.7312182312913 61.588531338411684 0.0
    vertex 54.02541505474525 61.91000278837276 100.27686299999999
    vertex 54.02541505474525 61.91000278837276 0.0
  endloop
endfacet
facet normal -0.7377086652938578 0.6751191932913438 0.0
  outer loop
    vertex 55.74674883856879 63.79091931512553 100.27686299999999
    vertex 54.02541505474525 61.91000278837276 0.0
    vertex 54.02541505474525 61.91000278837276 100.27686299999999
  endloop
endfacet
facet normal -0.7377086652938578 0.6751191932913438 0.0
  outer loop
    vertex 54.02541505474525 61.91000278837276 0.0
    vertex 55.74674883856879 63.79091931512553 100.27686299999999
    vertex 55.74674883856879 63.79091931512553 0.0
  endloop
endfacet
facet normal -0.737708665293868 0.6751191932913327 0.0
  outer loop
    vertex 56.89296046426528 65.04339481417712 100.27686299999999
    vertex 55.74674883856879 63.79091931512553 0.0
    vertex 55.74674883856879 63.79091931512553 100.27686299999999
  endloop
endfacet
facet normal -0.737708665293868 0.6751191932913327 0.0
  outer loop
    vertex 55.74674883856879 63.79091931512553 0.0
    vertex 56.89296046426528 65.04339481417712 100.27686299999999
    vertex 56.89296046426528 65.04339481417712 0.0
  endloop
endfacet
facet normal -1.0 0.0 0.0
  outer loop
    vertex 56.89296046426528 67.64723254577714 100.27686299999999
    vertex 56.89296046426528 65.04339481417712 0.0
    vertex 56.89296046426528 65.04339481417712 100.27686299999999
  endloop
endfacet
facet normal -1.0 0.0 0.0
  outer loop
    vertex 56.89296046426528 65.04339481417712 0.0
    vertex 56.89296046426528 67.64723254577714 100.27686299999999
    vertex 56.89296046426528 67.64723254577714 0.0
  endloop
endfacet
facet normal -0.8442313338508073 -0.5359789687520273 -0.0
  outer loop
    vertex 56.410224722884514 68.40759939336495 100.27686299999999
    vertex 56.89296046426528 67.64723254577714 0.0
    vertex 56.89296046426528 67.64723254577714 100.27686299999999
  endloop
endfacet
facet normal -0.8442313338508073 -0.5359789687520273 -0.0
  outer loop
    vertex 56.89296046426528 67.64723254577714 0.0
    vertex 56.410224722884514 68.40759939336495 100.27686299999999
    vertex 56.410224722884514 68.40759939336495 0.0
  endloop
endfacet
facet normal -0.8442313338507873 -0.5359789687520592 -0.0
  outer loop
    vertex 55.58244095608733 69.71145837725447 100.27686299999999
    vertex 56.410224722884514 68.40759939336495 0.0
    vertex 56.410224722884514 68.40759939336495 100.27686299999999
  endloop
endfacet
facet normal -0.8442313338507873 -0.5359789687520592 -0.0
  outer loop
    vertex 56.410224722884514 68.40759939336495 0.0
    vertex 55.58244095608733 69.71145837725447 100.27686299999999
    vertex 55.58244095608733 69.71145837725447 0.0
  endloop
endfacet
facet normal -0.631219980545103 -0.7756038525952793 -0.0
  outer loop
    vertex 55.58244095608733 69.71145837725447 100.27686299999999
    vertex 54.162250051526875 70.8672711960631 0.0
    vertex 55.58244095608733 69.71145837725447 0.0
  endloop
endfacet
facet normal -0.631219980545103 -0.7756038525952793 -0.0
  outer loop
    vertex 54.162250051526875 70.8672711960631 0.0
    vertex 55.58244095608733 69.71145837725447 100.27686299999999
    vertex 54.162250051526875 70.8672711960631 100.27686299999999
  endloop
endfacet
facet normal -1.0 0.0 0.0
  outer loop
    vertex 54.162250051526875 71.79259703806312 100.27686299999999
    vertex 54.162250051526875 70.8672711960631 0.0
    vertex 54.162250051526875 70.8672711960631 100.27686299999999
  endloop
endfacet
facet normal -1.0 0.0 0.0
  outer loop
    vertex 54.162250051526875 70.8672711960631 0.0
    vertex 54.162250051526875 71.79259703806312 100.27686299999999
    vertex 54.162250051526875 71.79259703806312 0.0
  endloop
endfacet
facet normal -0.8529721535933924 0.521956420780749 0.0
  outer loop
    vertex 54.76202476989171 72.77273850740126 100.27686299999999
    vertex 54.162250051526875 71.79259703806312 0.0
    vertex 54.162250051526875 71.79259703806312 100.27686299999999
  endloop
endfacet
facet normal -0.8529721535933924 0.521956420780749 0.0
  outer loop
    vertex 54.162250051526875 71.79259703806312 0.0
    vertex 54.76202476989171 72.77273850740126 100.27686299999999
    vertex 54.76202476989171 72.77273850740126 0.0
  endloop
endfacet
facet normal -0.3752707264113315 0.9269152506560197 0.0
  outer loop
    vertex 54.76202476989171 72.77273850740126 100.27686299999999
    vertex 55.28374352390228 72.9839614597277 0.0
    vertex 54.76202476989171 72.77273850740126 0.0
  endloop
endfacet
facet normal -0.3752707264113315 0.9269152506560197 0.0
  outer loop
    vertex 55.28374352390228 72.9839614597277 0.0
    vertex 54.76202476989171 72.77273850740126 100.27686299999999
    vertex 55.28374352390228 72.9839614597277 100.27686299999999
  endloop
endfacet
facet normal -0.6703029333692223 0.7420875807589129 0.0
  outer loop
    vertex 55.28374352390228 72.9839614597277 100.27686299999999
    vertex 55.92113666805228 73.55969740425898 0.0
    vertex 55.28374352390228 72.9839614597277 0.0
  endloop
endfacet
facet normal -0.6703029333692223 0.7420875807589129 0.0
  outer loop
    vertex 55.92113666805228 73.55969740425898 0.0
    vertex 55.28374352390228 72.9839614597277 100.27686299999999
    vertex 55.92113666805228 73.55969740425898 100.27686299999999
  endloop
endfacet
facet normal 0.0 0.0 -1.0
  outer loop
    vertex 54.76202476989171 72.77273850740126 0.0
    vertex 54.162250051526875 70.8672711960631 0.0
    vertex 54.162250051526875 71.79259703806312 0.0
  endloop
endfacet
facet normal 0.0 0.0 -1.0
  outer loop
    vertex 54.162250051526875 70.8672711960631 0.0
    vertex 54.76202476989171 72.77273850740126 0.0
    vertex 55.58244095608733 69.71145837725447 0.0
  endloop
endfacet
facet normal 0.0 0.0 -1.0
  outer loop
    vertex 55.58244095608733 69.71145837725447 0.0
    vertex 54.76202476989171 72.77273850740126 0.0
    vertex 55.28374352390228 72.9839614597277 0.0
  endloop
endfacet
facet normal 0.0 0.0 -1.0
  outer loop
    vertex 55.58244095608733 69.71145837725447 0.0
    vertex 55.28374352390228 72.9839614597277 0.0
    vertex 55.92113666805228 73.55969740425898 0.0
  endloop
endfacet
facet normal 0.0 0.0 -1.0
  outer loop
    vertex 55.58244095608733 69.71145837725447 0.0
    vertex 55.92113666805228 73.55969740425898 0.0
    vertex 56.410224722884514 68.40759939336495 0.0
  endloop
endfacet
facet normal 0.0 0.0 -1.0
  outer loop
    vertex 56.410224722884514 68.40759939336495 0.0
    vertex 55.92113666805228 73.55969740425898 0.0
    vertex 56.835176485139066 74.84427733217058 0.0
  endloop
endfacet
facet normal 0.0 0.0 -1.0
  outer loop
    vertex 56.410224722884514 68.40759939336495 0.0
    vertex 56.835176485139066 74.84427733217058 0.0
    vertex 56.89296046426528 67.64723254577714 0.0
  endloop
endfacet
facet normal 0.0 0.0 -1.0
  outer loop
    vertex 56.89296046426528 67.64723254577714 0.0
    vertex 56.835176485139066 74.84427733217058 0.0
    vertex 67.81722213983575 74.8386699911426 0.0
  endloop
endfacet
facet normal 0.0 0.0 -1.0
  outer loop
    vertex 56.89296046426528 67.64723254577714 0.0
    vertex 67.81722213983575 74.8386699911426 0.0
    vertex 56.89296046426528 65.04339481417712 0.0
  endloop
endfacet
facet normal 0.0 0.0 -1.0
  outer loop
    vertex 56.89296046426528 65.04339481417712 0.0
    vertex 67.81722213983575 74.8386699911426 0.0
    vertex 67.75943816070956 67.6416252047492 0.0
  endloop
endfacet
facet normal 0.0 0.0 -1.0
  outer loop
    vertex 67.75943816070956 67.6416252047492 0.0
    vertex 67.81722213983575 74.8386699911426 0.0
    vertex 68.24217390209031 68.40199205233702 0.0
  endloop
endfacet
facet normal 0.0 0.0 -1.0
  outer loop
    vertex 68.24217390209031 68.40199205233702 0.0
    vertex 67.81722213983575 74.8386699911426 0.0
    vertex 68.73126195692252 73.55409006323102 0.0
  endloop
endfacet
facet normal 0.0 0.0 -1.0
  outer loop
    vertex 68.24217390209031 68.40199205233702 0.0
    vertex 68.73126195692252 73.55409006323102 0.0
    vertex 69.06995766888745 69.7058510362265 0.0
  endloop
endfacet
facet normal 0.0 0.0 -1.0
  outer loop
    vertex 69.06995766888745 69.7058510362265 0.0
    vertex 68.73126195692252 73.55409006323102 0.0
    vertex 69.3686551010725 72.97835411869973 0.0
  endloop
endfacet
facet normal 0.0 0.0 -1.0
  outer loop
    vertex 69.06995766888745 69.7058510362265 0.0
    vertex 69.3686551010725 72.97835411869973 0.0
    vertex 70.49014857344788 70.86166385503515 0.0
  endloop
endfacet
facet normal 0.0 0.0 -1.0
  outer loop
    vertex 70.49014857344788 70.86166385503515 0.0
    vertex 69.3686551010725 72.97835411869973 0.0
    vertex 69.89037385508313 72.76713116637332 0.0
  endloop
endfacet
facet normal 0.0 0.0 -1.0
  outer loop
    vertex 70.49014857344788 70.86166385503515 0.0
    vertex 69.89037385508313 72.76713116637332 0.0
    vertex 70.49014857344788 71.78698969703514 0.0
  endloop
endfacet
facet normal 0.0 0.0 -1.0
  outer loop
    vertex 54.02541505474525 61.91000278837276 0.0
    vertex 53.7312182312913 59.2108909040117 0.0
    vertex 53.7312182312913 61.588531338411684 0.0
  endloop
endfacet
facet normal 0.0 0.0 -1.0
  outer loop
    vertex 53.7312182312913 59.2108909040117 0.0
    vertex 54.02541505474525 61.91000278837276 0.0
    vertex 54.744840485800005 58.06273184488414 0.0
  endloop
endfacet
facet normal 0.0 0.0 -1.0
  outer loop
    vertex 54.744840485800005 58.06273184488414 0.0
    vertex 54.02541505474525 61.91000278837276 0.0
    vertex 55.74674883856879 63.79091931512553 0.0
  endloop
endfacet
facet normal 0.0 0.0 -1.0
  outer loop
    vertex 54.744840485800005 58.06273184488414 0.0
    vertex 55.74674883856879 63.79091931512553 0.0
    vertex 69.90755813917484 58.0571245038562 0.0
  endloop
endfacet
facet normal 0.0 0.0 -1.0
  outer loop
    vertex 69.90755813917484 58.0571245038562 0.0
    vertex 55.74674883856879 63.79091931512553 0.0
    vertex 56.89296046426528 65.04339481417712 0.0
  endloop
endfacet
facet normal 0.0 0.0 -1.0
  outer loop
    vertex 69.90755813917484 58.0571245038562 0.0
    vertex 56.89296046426528 65.04339481417712 0.0
    vertex 67.75943816070956 65.03778747314921 0.0
  endloop
endfacet
facet normal 0.0 0.0 -1.0
  outer loop
    vertex 67.75943816070956 65.03778747314921 0.0
    vertex 56.89296046426528 65.04339481417712 0.0
    vertex 67.75943816070956 67.6416252047492 0.0
  endloop
endfacet
facet normal 0.0 0.0 -1.0
  outer loop
    vertex 69.90755813917484 58.0571245038562 0.0
    vertex 67.75943816070956 65.03778747314921 0.0
    vertex 68.90564978640606 63.78531197409759 0.0
  endloop
endfacet
facet normal 0.0 0.0 -1.0
  outer loop
    vertex 69.90755813917484 58.0571245038562 0.0
    vertex 68.90564978640606 63.78531197409759 0.0
    vertex 70.62698357022951 61.904395447344804 0.0
  endloop
endfacet
facet normal 0.0 0.0 -1.0
  outer loop
    vertex 69.90755813917484 58.0571245038562 0.0
    vertex 70.62698357022951 61.904395447344804 0.0
    vertex 70.92118039368347 59.20528356298374 0.0
  endloop
endfacet
facet normal 0.0 0.0 -1.0
  outer loop
    vertex 70.92118039368347 59.20528356298374 0.0
    vertex 70.62698357022951 61.904395447344804 0.0
    vertex 70.92118039368347 61.58292399738373 0.0
  endloop
endfacet
facet normal 0.0 0.0 1.0
  outer loop
    vertex 54.744840485800005 58.06273184488414 100.27686299999999
    vertex 53.7312182312913 61.588531338411684 100.27686299999999
    vertex 53.7312182312913 59.2108909040117 100.27686299999999
  endloop
endfacet
facet normal 0.0 0.0 1.0
  outer loop
    vertex 53.7312182312913 61.588531338411684 100.27686299999999
    vertex 54.744840485800005 58.06273184488414 100.27686299999999
    vertex 54.02541505474525 61.91000278837276 100.27686299999999
  endloop
endfacet
facet normal 0.0 0.0 1.0
  outer loop
    vertex 54.02541505474525 61.91000278837276 100.27686299999999
    vertex 54.744840485800005 58.06273184488414 100.27686299999999
    vertex 55.74674883856879 63.79091931512553 100.27686299999999
  endloop
endfacet
facet normal 0.0 0.0 1.0
  outer loop
    vertex 55.74674883856879 63.79091931512553 100.27686299999999
    vertex 54.744840485800005 58.06273184488414 100.27686299999999
    vertex 69.90755813917484 58.0571245038562 100.27686299999999
  endloop
endfacet
facet normal 0.0 0.0 1.0
  outer loop
    vertex 55.74674883856879 63.79091931512553 100.27686299999999
    vertex 69.90755813917484 58.0571245038562 100.27686299999999
    vertex 56.89296046426528 65.04339481417712 100.27686299999999
  endloop
endfacet
facet normal 0.0 0.0 1.0
  outer loop
    vertex 56.89296046426528 65.04339481417712 100.27686299999999
    vertex 69.90755813917484 58.0571245038562 100.27686299999999
    vertex 56.89296046426528 67.64723254577714 100.27686299999999
  endloop
endfacet
facet normal 0.0 0.0 1.0
  outer loop
    vertex 56.89296046426528 67.64723254577714 100.27686299999999
    vertex 69.90755813917484 58.0571245038562 100.27686299999999
    vertex 67.75943816070956 65.03778747314921 100.27686299999999
  endloop
endfacet
facet normal 0.0 0.0 1.0
  outer loop
    vertex 67.75943816070956 65.03778747314921 100.27686299999999
    vertex 69.90755813917484 58.0571245038562 100.27686299999999
    vertex 68.90564978640606 63.78531197409759 100.27686299999999
  endloop
endfacet
facet normal 0.0 0.0 1.0
  outer loop
    vertex 68.90564978640606 63.78531197409759 100.27686299999999
    vertex 69.90755813917484 58.0571245038562 100.27686299999999
    vertex 70.62698357022951 61.904395447344804 100.27686299999999
  endloop
endfacet
facet normal 0.0 0.0 1.0
  outer loop
    vertex 70.62698357022951 61.904395447344804 100.27686299999999
    vertex 69.90755813917484 58.0571245038562 100.27686299999999
    vertex 70.92118039368347 59.20528356298374 100.27686299999999
  endloop
endfacet
facet normal 0.0 0.0 1.0
  outer loop
    vertex 70.62698357022951 61.904395447344804 100.27686299999999
    vertex 70.92118039368347 59.20528356298374 100.27686299999999
    vertex 70.92118039368347 61.58292399738373 100.27686299999999
  endloop
endfacet
facet normal 0.0 0.0 1.0
  outer loop
    vertex 55.58244095608733 69.71145837725447 100.27686299999999
    vertex 54.162250051526875 71.79259703806312 100.27686299999999
    vertex 54.162250051526875 70.8672711960631 100.27686299999999
  endloop
endfacet
facet normal 0.0 0.0 1.0
  outer loop
    vertex 54.162250051526875 71.79259703806312 100.27686299999999
    vertex 55.58244095608733 69.71145837725447 100.27686299999999
    vertex 54.76202476989171 72.77273850740126 100.27686299999999
  endloop
endfacet
facet normal 0.0 0.0 1.0
  outer loop
    vertex 54.76202476989171 72.77273850740126 100.27686299999999
    vertex 55.58244095608733 69.71145837725447 100.27686299999999
    vertex 55.28374352390228 72.9839614597277 100.27686299999999
  endloop
endfacet
facet normal 0.0 0.0 1.0
  outer loop
    vertex 55.28374352390228 72.9839614597277 100.27686299999999
    vertex 55.58244095608733 69.71145837725447 100.27686299999999
    vertex 55.92113666805228 73.55969740425898 100.27686299999999
  endloop
endfacet
facet normal 0.0 0.0 1.0
  outer loop
    vertex 55.92113666805228 73.55969740425898 100.27686299999999
    vertex 55.58244095608733 69.71145837725447 100.27686299999999
    vertex 56.410224722884514 68.40759939336495 100.27686299999999
  endloop
endfacet
facet normal 0.0 0.0 1.0
  outer loop
    vertex 55.92113666805228 73.55969740425898 100.27686299999999
    vertex 56.410224722884514 68.40759939336495 100.27686299999999
    vertex 56.835176485139066 74.84427733217058 100.27686299999999
  endloop
endfacet
facet normal 0.0 0.0 1.0
  outer loop
    vertex 56.835176485139066 74.84427733217058 100.27686299999999
    vertex 56.410224722884514 68.40759939336495 100.27686299999999
    vertex 56.89296046426528 67.64723254577714 100.27686299999999
  endloop
endfacet
facet normal 0.0 0.0 1.0
  outer loop
    vertex 56.835176485139066 74.84427733217058 100.27686299999999
    vertex 56.89296046426528 67.64723254577714 100.27686299999999
    vertex 67.81722213983575 74.8386699911426 100.27686299999999
  endloop
endfacet
facet normal 0.0 0.0 1.0
  outer loop
    vertex 67.81722213983575 74.8386699911426 100.27686299999999
    vertex 56.89296046426528 67.64723254577714 100.27686299999999
    vertex 67.75943816070956 67.6416252047492 100.27686299999999
  endloop
endfacet
facet normal 0.0 0.0 1.0
  outer loop
    vertex 67.75943816070956 67.6416252047492 100.27686299999999
    vertex 56.89296046426528 67.64723254577714 100.27686299999999
    vertex 67.75943816070956 65.03778747314921 100.27686299999999
  endloop
endfacet
facet normal 0.0 0.0 1.0
  outer loop
    vertex 67.81722213983575 74.8386699911426 100.27686299999999
    vertex 67.75943816070956 67.6416252047492 100.27686299999999
    vertex 68.24217390209031 68.40199205233702 100.27686299999999
  endloop
endfacet
facet normal 0.0 0.0 1.0
  outer loop
    vertex 67.81722213983575 74.8386699911426 100.27686299999999
    vertex 68.24217390209031 68.40199205233702 100.27686299999999
    vertex 68.73126195692252 73.55409006323102 100.27686299999999
  endloop
endfacet
facet normal 0.0 0.0 1.0
  outer loop
    vertex 68.73126195692252 73.55409006323102 100.27686299999999
    vertex 68.24217390209031 68.40199205233702 100.27686299999999
    vertex 69.06995766888745 69.7058510362265 100.27686299999999
  endloop
endfacet
facet normal 0.0 0.0 1.0
  outer loop
    vertex 68.73126195692252 73.55409006323102 100.27686299999999
    vertex 69.06995766888745 69.7058510362265 100.27686299999999
    vertex 69.3686551010725 72.97835411869973 100.27686299999999
  endloop
endfacet
facet normal 0.0 0.0 1.0
  outer loop
    vertex 69.3686551010725 72.97835411869973 100.27686299999999
    vertex 69.06995766888745 69.7058510362265 100.27686299999999
    vertex 70.49014857344788 70.86166385503515 100.27686299999999
  endloop
endfacet
facet normal 0.0 0.0 1.0
  outer loop
    vertex 69.3686551010725 72.97835411869973 100.27686299999999
    vertex 70.49014857344788 70.86166385503515 100.27686299999999
    vertex 69.89037385508313 72.76713116637332 100.27686299999999
  endloop
endfacet
facet normal 0.0 0.0 1.0
  outer loop
    vertex 69.89037385508313 72.76713116637332 100.27686299999999
    vertex 70.49014857344788 70.86166385503515 100.27686299999999
    vertex 70.49014857344788 71.78698969703514 100.27686299999999
  endloop
endfacet
endsolid Runner2
